<svg width="0" height="0" class="hidden">
  <symbol viewBox="0 0 70 70" fill="none" xmlns="http://www.w3.org/2000/svg" id="antenna">
    <path d="M67.316 48.339l-18.47-18.605 2.05-10.097a4.654 4.654 0 0 0 1.66.319h.014a4.723 4.723 0 1 0-4.394-3.14l-10.85 1.325L19.628.35a1.167 1.167 0 0 0-.824-.35 1.17 1.17 0 0 0-.817.34L14.68 3.63a1.167 1.167 0 0 0 0 1.65l1.78 1.805a32.687 32.687 0 0 0 5.511 38.638c.094.09.202.161.32.213a6.761 6.761 0 0 0-.114 1.197v13.534h-14A5.84 5.84 0 0 0 2.342 66.5v2.333c0 .645.523 1.167 1.167 1.167h53.667c.644 0 1.166-.522 1.166-1.167V66.5a5.84 5.84 0 0 0-5.833-5.833h-14v-5.998a32.88 32.88 0 0 0 6.669.7 32.484 32.484 0 0 0 15.4-3.901l1.79 1.8c.216.221.513.347.823.35.306-.002.6-.124.817-.34l3.308-3.29a1.167 1.167 0 0 0 0-1.65zM50.925 13.635a2.333 2.333 0 1 1 1.644 3.987h-.007a2.333 2.333 0 0 1-1.633-3.987h-.004zM48.178 21.3l-1.309 6.444-2.571-2.587 3.88-3.857zm-1.325-1.973l-4.2 4.176-3.25-3.267 7.45-.909zM52.509 63a3.5 3.5 0 0 1 3.5 3.5v1.167H4.676V66.5a3.5 3.5 0 0 1 3.5-3.5h44.333zm-16.333-4.667v2.334H24.509v-2.334h11.667zM24.509 56v-8.867c0-2.83 2.617-5.133 5.833-5.133 3.217 0 5.834 2.303 5.834 5.133V56H24.509zm14-3.71v-5.157c0-4.117-3.663-7.466-8.167-7.466a8.312 8.312 0 0 0-7.177 3.907A30.34 30.34 0 0 1 18.18 8.82l40.692 40.925a30.233 30.233 0 0 1-20.363 2.544zm24.695-1.496l-1.644-1.653L18.792 6.116l-1.65-1.655 1.65-1.645L36.15 20.272c.008 0 .013.015.02.021l28.69 28.856-1.656 1.645z"
      fill="#212121"></path>
    <path d="M30.353 44.333h-.01a3.5 3.5 0 1 0-.011 7h.01a3.5 3.5 0 1 0 .01-7zm.816 4.328a1.167 1.167 0 1 1-.827-1.994 1.167 1.167 0 0 1 .817 1.993h.01z" fill="#2196F3"></path>
  </symbol>
  <symbol viewBox="0 0 70 70" fill="none" xmlns="http://www.w3.org/2000/svg" id="astronaut">
    <path d="M69.943 9.896a1.168 1.168 0 0 0-.941-.793l-4.18-.608-1.87-3.787c-.391-.798-1.7-.798-2.091 0l-1.87 3.787-4.18.608a1.167 1.167 0 0 0-.648 1.99l3.026 2.948-.714 4.162c-.075.438.105.88.463 1.142.363.263.837.296 1.23.088l3.738-1.966 3.738 1.966a1.168 1.168 0 0 0 1.693-1.23l-.714-4.162 3.025-2.949a1.17 1.17 0 0 0 .295-1.196zM64.556 12.8c-.275.267-.4.655-.335 1.033l.417 2.437-2.188-1.15a1.164 1.164 0 0 0-1.088 0l-2.188 1.15.417-2.437a1.168 1.168 0 0 0-.334-1.033l-1.773-1.726 2.448-.356c.38-.055.708-.294.879-.639l1.094-2.216 1.094 2.216c.17.345.498.584.879.639l2.448.355-1.77 1.727zm-7.389 32.092h-2.333v2.334h2.333v-2.334zm0 4.668h-2.333v2.332h2.333V49.56zm2.333-2.334h-2.333v2.333H59.5v-2.333zm-4.666 0H52.5v2.333h2.334v-2.333zM49 57.726h-2.333v2.333H49v-2.333zm0 4.667h-2.333v2.333H49v-2.333zm2.334-2.333H49v2.333h2.334v-2.334zm-4.667 0h-2.334v2.333h2.334v-2.334zM35 53.06h-2.333v2.333H35v-2.334zm0 4.666h-2.333v2.333H35v-2.333zm2.333-2.334H35v2.334h2.333v-2.334zm-4.666 0h-2.334v2.334h2.334v-2.334zm-19.834-42H10.5v2.333h2.333v-2.333zm0 4.667H10.5v2.333h2.333V18.06zm2.333-2.334h-2.333v2.334h2.333v-2.334zm-4.666 0H8.166v2.334H10.5v-2.334z"
      fill="#2196F3"></path>
    <path d="M54.063 30.974a3.88 3.88 0 0 0-2.599-1.541 3.886 3.886 0 0 0-2.93.77l-2.74 2.097-.001.002-4.151 3.1-2.97-1.184c5.296-2.376 8.998-7.674 8.998-13.825 0-8.363-6.83-15.167-15.227-15.167S17.215 12.03 17.215 20.393c0 3.031.907 5.85 2.45 8.222l-6.046-.053h-.01c-.019 0-.034.01-.051.01a1.143 1.143 0 0 0-.34.069c-.028.01-.057.016-.084.029-.014.006-.028.007-.042.014L6.02 32.175c-.001 0-.003 0-.003.002l-4.141 1.991a.898.898 0 0 0-.138.077A3.895 3.895 0 0 0 .43 39.268a3.884 3.884 0 0 0 2.31 1.944 3.891 3.891 0 0 0 3.016-.281l3.036-1.614 4.952-2.558 2.968-.017L4.808 48.588c0 .002-.002.002-.003.003l-2.928 2.916a3.607 3.607 0 0 0-1.073 2.577 3.647 3.647 0 0 0 3.652 3.64c.936 0 1.869-.355 2.582-1.062l2.875-2.863 3.808-2.843 1.97 1.962-3.853 3.837-.004.002-2.928 2.917a3.608 3.608 0 0 0-1.073 2.576c0 .973.38 1.889 1.073 2.579a3.65 3.65 0 0 0 2.58 1.061c.935 0 1.87-.354 2.582-1.061l2.93-2.917 4.686-4.667.002-.003 2.21-2.188-.01-.008c.015-.014.035-.019.049-.034l11.3-12.377 7.593 1.08c.055.008.11.012.165.012.14 0 .277-.034.41-.084.038-.014.071-.033.108-.051.042-.021.086-.033.126-.06l7.029-4.666c.026-.018.04-.046.064-.065.028-.022.063-.031.089-.056l2.78-2.605a3.892 3.892 0 0 0 .465-5.166zM4.66 38.872a1.56 1.56 0 0 1-1.221.113 1.564 1.564 0 0 1-.465-2.755l2.874-1.383.692 2.022.29.85-2.17 1.153zm7.65-3.998l-3.387 1.75-.558-1.633-.402-1.174 4.434-2.189-.087 3.246zm33.03-14.482c0 2.009-.48 3.904-1.31 5.599l-9.147-4.155a4.07 4.07 0 0 0-1.724-3.035l3.203-10.632c5.2 1.654 8.978 6.506 8.978 12.223zm-25.788 0c0-7.076 5.784-12.834 12.894-12.834.553 0 1.094.047 1.63.115L30.943 18.07c-.042 0-.081-.013-.125-.013a4.094 4.094 0 0 0-4.096 4.084 4.095 4.095 0 0 0 4.096 4.083c1.52 0 2.832-.838 3.54-2.066l8.45 3.839c-2.352 3.164-6.114 5.227-10.362 5.227-7.11 0-12.894-5.757-12.894-12.833zm13.03 1.75a1.76 1.76 0 0 1-1.764 1.75 1.759 1.759 0 0 1-1.762-1.75c0-.965.79-1.75 1.762-1.75s1.763.785 1.763 1.75zM5.391 55.007a1.331 1.331 0 0 1-1.87.002 1.3 1.3 0 0 1 0-1.847l2.105-2.097L7.49 52.92l-2.097 2.089zm7.03 8.167a1.33 1.33 0 0 1-1.87.002 1.299 1.299 0 0 1 0-1.847l2.106-2.098.88.876.983.978-2.099 2.09zm7.616-7.588l-.003.003-3.86 3.85-.882-.877-.982-.977 3.857-3.84v-.001l.004-.002c.087-.088.142-.193.196-.297.015-.03.044-.056.057-.087.036-.09.042-.187.056-.281.007-.054.03-.104.03-.16 0-.077-.028-.153-.044-.23-.014-.07-.014-.141-.041-.209a1.167 1.167 0 0 0-.2-.3c-.022-.027-.03-.06-.054-.084h-.002s0-.003-.002-.004l-3.515-3.5c-.037-.038-.085-.053-.127-.084a1.116 1.116 0 0 0-.19-.127 1.084 1.084 0 0 0-.204-.07 1.12 1.12 0 0 0-.226-.044 1.133 1.133 0 0 0-.209.01c-.078.01-.151.02-.227.045a1.08 1.08 0 0 0-.206.098c-.044.024-.093.033-.133.063l-3.88 2.896-1.97-1.963 5.248-5.22 9.538 9.382-2.029 2.01zm14.917-15.349c-.034-.004-.066.008-.1.006a1.148 1.148 0 0 0-.252.015 1.076 1.076 0 0 0-.404.15 1.12 1.12 0 0 0-.181.134c-.028.024-.062.036-.088.064L23.653 51.862l-9.468-9.311 6.197-6.165a1.168 1.168 0 0 0-.83-1.993l-4.854.028.061-3.516 6.79.058a15.2 15.2 0 0 0 10.897 4.596c.957 0 1.89-.1 2.799-.268.087.07.174.14.283.185l5.272 2.1.333 1.66.39 1.936-6.569-.935zm8.84.39l-.685-3.408 3.164-2.363.828 1.1 1.242 1.65-4.55 3.02zm8.21-6.193l-1.832 1.718-2.037-2.705 1.818-1.394c.34-.261.768-.367 1.188-.313.422.06.796.28 1.05.622a1.562 1.562 0 0 1-.187 2.072z"
      fill="#212121"></path>
    <path d="M29.755 40.565l-4.688-4.667a1.166 1.166 0 0 0-1.646 0l-4.687 4.667a1.172 1.172 0 0 0 0 1.654l4.686 4.667a1.166 1.166 0 0 0 1.647 0l4.688-4.667a1.167 1.167 0 0 0 0-1.654zm-5.51 3.848l-3.034-3.02 3.033-3.021 3.035 3.02-3.035 3.02zm13.302-33.321l-.564 2.266c.156.039 3.801.988 3.801 4.7h2.334c0-4.412-3.644-6.486-5.571-6.966zm5.571 9.3h-2.334v2.333h2.334v-2.333z"
      fill="#212121"></path>
  </symbol>
  
  <symbol viewBox="0 0 70 70" fill="none" xmlns="http://www.w3.org/2000/svg" id="clock">
    <g clip-path="url(#clip0)">
      <path d="M68.461 33.471C68.458 14.982 53.466-.004 34.975 0 16.485.004 1.5 14.996 1.505 33.486A33.478 33.478 0 0 0 24.799 65.37c.133.042.27.063.41.063.263 0 .521-.071.748-.205.296-.175.516-.453.62-.78l8.454-26.797a4.184 4.184 0 1 0-1.837-7.95L22.025 18.53a1.395 1.395 0 0 0-1.972 1.973l11.163 11.176a4.104 4.104 0 0 0 1.174 5.051l-8.056 25.535C8.414 56.4.262 38.74 6.126 22.82 11.991 6.9 29.65-1.252 45.571 4.613c15.92 5.864 24.072 23.524 18.207 39.444A30.721 30.721 0 0 1 47.455 61.5l-.87-4.1a1.395 1.395 0 0 0-2.294-.752l-8.393 7.494a1.394 1.394 0 0 0 .505 2.372l10.716 3.42a1.394 1.394 0 0 0 1.791-1.619l-.855-4.022a33.37 33.37 0 0 0 20.406-30.82zm-33.478-1.394a1.395 1.395 0 1 1 0 2.79 1.395 1.395 0 0 1 0-2.79zm4.594 32.515l4.778-4.262 1.319 6.213-6.097-1.951z"
        fill="#212121"></path>
      <path d="M33.588 6.967v2.79a1.395 1.395 0 1 0 2.79 0v-2.79a1.395 1.395 0 0 0-2.79 0zM8.479 32.077a1.395 1.395 0 0 0 0 2.79h2.79a1.395 1.395 0 1 0 0-2.79h-2.79zm53.007 2.79a1.395 1.395 0 1 0 0-2.79h-2.79a1.395 1.395 0 0 0 0 2.79h2.79z" fill="#2196F3"></path>
    </g>
    <defs>
      <clipPath id="clip0">
        <path fill="#fff" d="M0 0h70v70H0z"></path>
      </clipPath>
    </defs>
  </symbol>
  <symbol viewBox="0 0 70 70" fill="none" xmlns="http://www.w3.org/2000/svg" id="diagram">
    <g clip-path="url(#clip0)">
      <path d="M32.65 32.735h2.332V43.23H32.65V32.735zm9.328 4.665h2.332v5.83h-2.332V37.4zm-18.657 3.498h2.332v2.332h-2.332v-2.332zm-6.996-1.167h2.332v3.498h-2.332v-3.498z" fill="#2196F3"></path>
      <path d="M3.498 61.886h55.97a3.498 3.498 0 0 0 3.499-3.498v-4.664a3.498 3.498 0 0 0-3.498-3.498h-1.166v-29.08l6.623-6.274a3.518 3.518 0 1 0-1.633-1.668l-4.99 4.73v-2.69a3.498 3.498 0 0 0-3.498-3.498H8.162a3.498 3.498 0 0 0-3.498 3.498v34.982H3.498A3.498 3.498 0 0 0 0 53.724v4.664a3.498 3.498 0 0 0 3.498 3.498zM66.465 10.58a1.166 1.166 0 1 1 0 2.332 1.166 1.166 0 0 1 0-2.332zM6.996 15.244c0-.644.522-1.166 1.166-1.166h46.643c.644 0 1.166.522 1.166 1.166v4.897l-2.332 2.216v-4.78c0-.645-.523-1.167-1.167-1.167H10.495c-.644 0-1.167.522-1.167 1.166v29.152c0 .644.523 1.166 1.167 1.166h41.977c.645 0 1.167-.522 1.167-1.166V25.565l2.332-2.21v26.87H6.996v-34.98zm10.495 15.159a3.498 3.498 0 1 0 2.422 6.012l4.053 2.034a1.167 1.167 0 0 0 1.392-.268l8.616-9.694 8.47 6.347c.455.34 1.089.304 1.501-.086l7.361-6.973v17.787H11.661v-26.82h39.645v5.82l-8.25 7.813-8.54-6.403a1.167 1.167 0 0 0-1.572.157l-8.734 9.828-3.265-1.633c.023-.14.038-.281.044-.423a3.498 3.498 0 0 0-3.498-3.498zm1.166 3.498a1.166 1.166 0 1 1-2.332 0 1.166 1.166 0 0 1 2.332 0zm6.996 18.657h11.66v1.166c0 .644-.521 1.166-1.165 1.166h-9.329a1.166 1.166 0 0 1-1.166-1.166v-1.166zm-23.32 1.166c0-.644.521-1.166 1.165-1.166h19.823v1.166a3.498 3.498 0 0 0 3.498 3.498h9.329a3.498 3.498 0 0 0 3.498-3.498v-1.166h19.823c.644 0 1.166.522 1.166 1.166v4.664c0 .644-.522 1.166-1.166 1.166H3.499a1.166 1.166 0 0 1-1.167-1.166v-4.664z"
        fill="#212121"></path>
    </g>
    <defs>
      <clipPath id="clip0">
        <path fill="#fff" d="M0 0h70v70H0z"></path>
      </clipPath>
    </defs>
  </symbol>
  <symbol viewBox="0 0 16 12" fill="none" xmlns="http://www.w3.org/2000/svg" id="envelope">
    <path d="M14.5 0h-13C.673 0 0 .673 0 1.5v9c0 .827.673 1.5 1.5 1.5h13c.827 0 1.5-.673 1.5-1.5v-9c0-.827-.673-1.5-1.5-1.5zm0 1c.068 0 .133.014.192.039L8 6.839l-6.692-5.8A.498.498 0 0 1 1.5 1h13zm0 10h-13a.5.5 0 0 1-.5-.5V2.095l6.672 5.783a.5.5 0 0 0 .656 0L15 2.095V10.5a.5.5 0 0 1-.5.5z"
      fill="#2196F3"></path>
  </symbol>
  <symbol viewBox="0 0 20 20" fill="none" xmlns="http://www.w3.org/2000/svg" id="facebook">
    <g clip-path="url(#clip0)">
      <path d="M13.33 3.32h1.827V.14a23.578 23.578 0 0 0-2.66-.14C9.864 0 8.06 1.656 8.06 4.7v2.8H5.156v3.555H8.06V20h3.562v-8.944h2.787l.442-3.555h-3.23V5.05c0-1.027.277-1.73 1.709-1.73z" fill="#AFB1B8"></path>
    </g>
    <defs>
      <clipPath id="clip0">
        <path fill="#fff" d="M0 0h20v20H0z"></path>
      </clipPath>
    </defs>
  </symbol>
  <symbol viewBox="0 0 20 20" fill="none" xmlns="http://www.w3.org/2000/svg" id="instagram">
    <g clip-path="url(#clip0)" fill="#AFB1B8">
      <path d="M19.98 5.88c-.046-1.063-.218-1.793-.465-2.426A4.88 4.88 0 0 0 18.36 1.68 4.922 4.922 0 0 0 16.59.527C15.952.281 15.226.11 14.163.063 13.093.012 12.753 0 10.037 0 7.322 0 6.982.012 5.915.059 4.852.105 4.122.277 3.49.523A4.88 4.88 0 0 0 1.715 1.68 4.924 4.924 0 0 0 .563 3.45C.316 4.087.145 4.813.098 5.876c-.051 1.07-.063 1.41-.063 4.126 0 2.715.012 3.055.059 4.122.047 1.063.219 1.793.465 2.426a4.932 4.932 0 0 0 1.156 1.774 4.92 4.92 0 0 0 1.77 1.152c.637.247 1.364.419 2.426.465 1.067.047 1.407.059 4.122.059 2.716 0 3.056-.012 4.122-.059 1.063-.046 1.793-.218 2.426-.464a5.116 5.116 0 0 0 2.927-2.927c.246-.637.418-1.364.465-2.426.047-1.067.058-1.407.058-4.122s-.004-3.055-.05-4.122zm-1.8 8.166c-.044.977-.208 1.504-.345 1.856a3.318 3.318 0 0 1-1.898 1.898c-.352.137-.883.301-1.856.344-1.055.047-1.371.059-4.04.059-2.668 0-2.989-.012-4.04-.059-.977-.043-1.504-.207-1.856-.344a3.077 3.077 0 0 1-1.148-.746 3.11 3.11 0 0 1-.747-1.148c-.136-.352-.3-.883-.343-1.856-.047-1.055-.059-1.372-.059-4.04 0-2.669.012-2.99.059-4.04.043-.977.207-1.504.343-1.856A3.04 3.04 0 0 1 3 2.965a3.105 3.105 0 0 1 1.15-.746c.35-.137.882-.3 1.855-.344 1.055-.046 1.371-.058 4.04-.058 2.672 0 2.989.012 4.04.058.976.043 1.504.207 1.856.344.433.16.828.414 1.148.746.332.325.586.715.747 1.15.136.35.3.882.343 1.855.047 1.055.059 1.371.059 4.04 0 2.668-.012 2.98-.059 4.036z"></path>
      <path d="M10.037 4.864A5.139 5.139 0 0 0 4.9 10.002a5.139 5.139 0 1 0 5.138-5.138zm0 8.47a3.333 3.333 0 1 1 .001-6.666 3.333 3.333 0 0 1 0 6.667zm6.541-8.673a1.2 1.2 0 1 1-2.4 0 1.2 1.2 0 0 1 2.4 0z"></path>
    </g>
    <defs>
      <clipPath id="clip0">
        <path fill="#fff" d="M0 0h20v20H0z"></path>
      </clipPath>
    </defs>
  </symbol>
  <symbol viewBox="0 0 20 20" fill="none" xmlns="http://www.w3.org/2000/svg" id="linkedin">
    <g clip-path="url(#clip0)" fill="#AFB1B8">
      <path d="M19.995 20H20v-7.336c0-3.588-.773-6.352-4.967-6.352-2.017 0-3.37 1.106-3.923 2.156h-.058V6.647H7.074v13.352h4.142v-6.611c0-1.741.33-3.425 2.486-3.425 2.124 0 2.155 1.987 2.155 3.536V20h4.138zM.33 6.647h4.147V20H.33V6.647zM2.402 0A2.402 2.402 0 0 0 0 2.402c0 1.325 1.076 2.424 2.402 2.424 1.325 0 2.401-1.098 2.401-2.424A2.403 2.403 0 0 0 2.402 0z"></path>
    </g>
    <defs>
      <clipPath id="clip0">
        <path fill="#fff" d="M0 0h20v20H0z"></path>
      </clipPath>
    </defs>
  </symbol>
  <symbol viewBox="0 0 45 50" fill="none" xmlns="http://www.w3.org/2000/svg" id="logo_1">
    <path d="M6 0l7.308 6.918h20.384v19.298L41 33.134V0H6z" fill="#AFB1B8"></path>
    <path d="M0 6.626v32.188h34V26.02L13.523 6.634 0 6.626zm27.523 27.48H5.38V12.457h1.565V32.64h20.578v1.465zM9.791 44.784l.818-1.685h.684L10.1 45.345v1.309h-.62v-1.309L8.287 43.1h.686l.818 1.685zm3.51 1.042h-1.376l-.288.828h-.642l1.342-3.555h.555l1.345 3.555h-.645l-.29-.828zm-1.203-.498h1.03l-.515-1.475-.515 1.475zm3.638.366c0-.164.045-.315.134-.451.09-.139.266-.302.53-.491a2.265 2.265 0 0 1-.29-.444.877.877 0 0 1-.081-.354c0-.279.084-.498.254-.66.169-.162.397-.244.683-.244.26 0 .47.077.635.23.166.151.25.34.25.564a.785.785 0 0 1-.113.41 1.34 1.34 0 0 1-.369.371l-.242.176.687.81c.099-.195.148-.412.148-.651h.515c0 .437-.102.796-.307 1.076l.522.618h-.688l-.2-.237a1.47 1.47 0 0 1-.909.286c-.351 0-.633-.093-.844-.279a.932.932 0 0 1-.315-.73zm1.177.535c.2 0 .387-.067.561-.2l-.776-.916-.076.054c-.195.148-.293.317-.293.508 0 .164.053.298.159.4a.585.585 0 0 0 .425.154zm-.328-2.29c0 .137.084.308.252.515l.27-.185.077-.061a.44.44 0 0 0 .151-.345.311.311 0 0 0-.105-.236.37.37 0 0 0-.266-.1.348.348 0 0 0-.276.117.432.432 0 0 0-.103.295zm6.458 1.558c-.036.379-.176.675-.42.888-.244.212-.569.318-.974.318-.283 0-.533-.067-.75-.2a1.332 1.332 0 0 1-.498-.574 2.065 2.065 0 0 1-.183-.862v-.332c0-.335.06-.63.178-.886.12-.256.29-.453.51-.591a1.43 1.43 0 0 1 .772-.208c.392 0 .708.107.947.32.24.213.379.514.418.903h-.615c-.03-.255-.104-.439-.225-.551-.119-.114-.294-.171-.525-.171-.268 0-.475.098-.62.295-.143.196-.216.483-.22.862v.315c0 .384.069.677.206.879.138.202.34.303.605.303.242 0 .425-.055.547-.164.122-.109.2-.29.232-.544h.615zm3.391-.528c0 .349-.06.654-.18.918a1.384 1.384 0 0 1-.518.606c-.223.14-.48.21-.772.21-.288 0-.545-.07-.771-.21a1.405 1.405 0 0 1-.523-.603 2.124 2.124 0 0 1-.185-.901v-.2c0-.347.06-.653.183-.918.124-.266.297-.468.52-.608.225-.142.482-.213.771-.213.29 0 .547.07.77.21.224.139.398.339.52.6.122.261.184.565.185.912v.197zm-.618-.185c0-.394-.075-.696-.224-.906a.728.728 0 0 0-.633-.315.731.731 0 0 0-.627.315c-.15.208-.226.504-.23.886v.205c0 .39.076.693.228.906.153.213.364.32.634.32.274 0 .484-.104.63-.313.148-.208.222-.512.222-.913v-.185z"
      fill="#AFB1B8"></path>
  </symbol>
  <symbol viewBox="0 0 40 52" fill="none" xmlns="http://www.w3.org/2000/svg" id="logo_2">
    <path d="M16.977 2.935h.137c.253 0 .526.025.796.048 1.193.084 2.377.263 3.542.534V.654A21.09 21.09 0 0 0 17.797.07 29.24 29.24 0 0 0 16.319 0h-.427c-2.475.01-4.94.327-7.336.946A29.703 29.703 0 0 0 .772 4.112v28.397a31.634 31.634 0 0 1 7.42-2.892 32.36 32.36 0 0 1 6.227-.956h.084a23.25 23.25 0 0 1 1.065-.03v-2.91a34.329 34.329 0 0 0-8.095 1.076c-.98.255-1.925.53-2.813.834l-1.012.344V5.833l.432-.208a28.275 28.275 0 0 1 10.517-2.683.627.627 0 0 1 .09 0c.403-.02.808-.03 1.205-.03h.455c.21.005.42.01.63.023z"
      fill="#AFB1B8"></path>
    <path d="M24.11 5.933a25.915 25.915 0 0 1-4.234-.344c-.45-.076-.893-.168-1.323-.267v28.072c1.82.45 3.69.67 5.565.656a29.943 29.943 0 0 0 7.337-.944 29.815 29.815 0 0 0 7.786-3.166V2.05a31.775 31.775 0 0 1-7.417 2.893c-2.52.648-5.112.98-7.713.99zm11.225.485l1.012-.34v22.148l-.433.209a27.761 27.761 0 0 1-5.173 1.859c-2.163.56-4.386.847-6.62.857-.668 0-1.33-.028-1.973-.084l-.693-.061V8.228l.807.054a28.52 28.52 0 0 0 1.854.056 34.263 34.263 0 0 0 8.406-1.078 44.86 44.86 0 0 0 2.813-.842zM2.737 42.212a1.492 1.492 0 0 0-1.126-.455 1.673 1.673 0 0 0-.65.122 1.463 1.463 0 0 0-.832.842c-.08.2-.119.413-.116.628v3.794c-.01.267.042.533.149.778.09.195.219.368.38.509.151.127.329.22.52.27.185.051.376.078.567.078.211.002.42-.043.612-.132a1.599 1.599 0 0 0 .96-1.465v-.424h-.993v.338a.881.881 0 0 1-.058.338.608.608 0 0 1-.144.214.697.697 0 0 1-.415.145.503.503 0 0 1-.465-.204.899.899 0 0 1-.132-.508v-3.538c-.006-.196.036-.39.122-.567a.507.507 0 0 1 .485-.229.527.527 0 0 1 .443.214.806.806 0 0 1 .164.509v.328h.982v-.387a1.788 1.788 0 0 0-.121-.664 1.562 1.562 0 0 0-.332-.534zm5.892-.042a1.765 1.765 0 0 0-1.128-.418c-.202 0-.403.037-.592.107A1.559 1.559 0 0 0 6 42.7c-.1.231-.15.482-.145.735v3.638c-.007.256.043.51.144.745.09.196.221.37.385.509.152.14.33.25.524.32.19.07.39.106.592.107a1.714 1.714 0 0 0 1.128-.427c.158-.142.286-.315.374-.509.102-.234.151-.489.144-.745v-3.639a1.77 1.77 0 0 0-.144-.734 1.643 1.643 0 0 0-.374-.532zm-.463 4.904a.654.654 0 0 1-.197.527.727.727 0 0 1-.934 0 .652.652 0 0 1-.197-.527v-3.639a.654.654 0 0 1 .197-.526.727.727 0 0 1 .934 0 .651.651 0 0 1 .197.526v3.64zm8.201 1.626v-6.89h-.953l-1.253 3.647h-.017l-1.263-3.646h-.943v6.888h.984v-4.19h.018l.963 2.962h.491l.972-2.962h.017v4.19h.984zm5.591-6.406c-.151-.17-.343-.3-.556-.377a2.184 2.184 0 0 0-.714-.107h-1.462v6.89h.981v-2.691h.506a1.8 1.8 0 0 0 .886-.188 1.43 1.43 0 0 0 .539-.527c.113-.183.19-.387.225-.6a4.9 4.9 0 0 0 .053-.783c.01-.33-.023-.662-.096-.984a1.465 1.465 0 0 0-.362-.633zm-.506 2.1a.868.868 0 0 1-.091.359.552.552 0 0 1-.253.241 1.006 1.006 0 0 1-.463.087h-.448v-2.342h.506a.943.943 0 0 1 .443.086.557.557 0 0 1 .23.254 1 1 0 0 1 .086.384v.458c0 .16.01.326 0 .473h-.01zm5.156-2.584h-.805l-1.518 6.89h.982l.288-1.48h1.338l.289 1.48h.981l-1.555-6.89zm-.906 4.471l.483-2.497h.018l.48 2.497h-.981zm7.248-.321h-.018l-1.483-4.15h-.943v6.89h.982v-4.143h.02l1.5 4.142h.923v-6.888h-.981v4.15zm5.998-4.15l-.79 2.74h-.02l-.79-2.74H36.31l1.349 3.978v2.911h.981v-2.911l1.348-3.977h-1.04zM0 50.645h.473v1.327h.321v-1.328h.47v-.272H0v.273zm3.977-.273l-.62 1.6h.341l.132-.364h.637l.137.364h.35l-.636-1.6h-.341zm-.05.967l.217-.593.217.593h-.435zm3.981.043h.37v.206a.613.613 0 0 1-.38.135.404.404 0 0 1-.34-.153.669.669 0 0 1-.118-.417c0-.356.154-.534.46-.534a.337.337 0 0 1 .362.255l.316-.062c-.068-.312-.293-.47-.678-.47a.804.804 0 0 0-.559.206.78.78 0 0 0-.23.615.873.873 0 0 0 .205.6.776.776 0 0 0 .607.235.96.96 0 0 0 .678-.255v-.63h-.693v.27zm4.015-1.01h-.324v1.6h1.12V51.7h-.796v-1.328zm3.395 0h-.324v1.6h.324v-1.6zm3.319 1.068l-.656-1.068h-.313v1.6h.3v-1.045l.643 1.045h.322v-1.6h-.296v1.069zm3-.173h.797v-.272h-.797v-.35h.857v-.273h-1.181v1.6h1.214V51.7h-.89v-.433zm7.275-.264h-.63v-.63h-.321v1.599h.321v-.7h.63v.7h.322v-1.6h-.322v.631zm3.018.264h.8v-.272h-.8v-.35h.86v-.273h-1.18v1.6h1.212V51.7h-.89v-.433zm4.093.001c.279-.044.42-.191.42-.445a.383.383 0 0 0-.157-.356.904.904 0 0 0-.468-.094h-.678v1.599h.322v-.669h.063a.432.432 0 0 1 .2.036.336.336 0 0 1 .114.117l.349.508h.384l-.195-.312a1.114 1.114 0 0 0-.354-.384zm-.324-.222h-.237v-.401h.253a.84.84 0 0 1 .326.038.21.21 0 0 1-.015.325.912.912 0 0 1-.327.038zm3.411.221h.796v-.272h-.797v-.35h.86v-.273h-1.183v1.6H40V51.7h-.89v-.433z"
      fill="#AFB1B8"></path>
  </symbol>
  <symbol viewBox="0 0 41 43" fill="none" xmlns="http://www.w3.org/2000/svg" id="logo_3">
    <path d="M6.345 41.795a.118.118 0 0 1 .08.034l.206.216c-.16.174-.357.314-.579.409a2.07 2.07 0 0 1-.82.147 2.01 2.01 0 0 1-.772-.137 1.672 1.672 0 0 1-.957-.986 2.163 2.163 0 0 1-.13-.767 2.017 2.017 0 0 1 .14-.77c.09-.222.226-.425.4-.597.175-.17.385-.302.617-.39.253-.094.523-.14.794-.137.253-.006.504.036.739.125.203.084.39.2.553.345l-.173.23a.173.173 0 0 1-.044.042.11.11 0 0 1-.069.018.157.157 0 0 1-.075-.025l-.092-.061-.129-.079a1.4 1.4 0 0 0-.406-.137 1.643 1.643 0 0 0-.306-.024 1.532 1.532 0 0 0-.571.102 1.29 1.29 0 0 0-.448.29c-.128.133-.227.29-.29.46a1.665 1.665 0 0 0-.106.608c-.003.21.033.42.106.618.062.169.16.325.285.458.118.125.264.222.427.285.168.066.348.1.53.098.105.001.21-.005.314-.02.17-.02.332-.076.476-.164.072-.045.14-.096.203-.152a.153.153 0 0 1 .097-.04zm5.942-1.085c.003.26-.044.52-.139.763a1.655 1.655 0 0 1-.387.592 1.754 1.754 0 0 1-.608.388 2.296 2.296 0 0 1-1.564 0 1.777 1.777 0 0 1-.604-.39 1.74 1.74 0 0 1-.391-.597 2.167 2.167 0 0 1 0-1.527 1.78 1.78 0 0 1 .39-.6 1.78 1.78 0 0 1 .605-.375 2.258 2.258 0 0 1 1.564 0c.228.088.435.22.607.39.17.17.301.37.388.59.095.245.143.505.14.767zm-.54 0a1.759 1.759 0 0 0-.098-.612 1.208 1.208 0 0 0-.71-.747 1.658 1.658 0 0 0-1.137 0 1.208 1.208 0 0 0-.712.747c-.13.4-.13.827 0 1.226a1.203 1.203 0 0 0 .712.745c.367.13.77.13 1.137 0a1.21 1.21 0 0 0 .435-.287c.123-.134.217-.29.275-.458.07-.198.102-.405.098-.613zm4.593.643l.055.137a2.56 2.56 0 0 1 .059-.137 1.28 1.28 0 0 1 .067-.135l1.314-2.276c.026-.04.05-.064.075-.071a.323.323 0 0 1 .108-.012h.388v3.702h-.46v-2.836a1.13 1.13 0 0 1 0-.128l-1.322 2.309a.202.202 0 0 1-.078.084.216.216 0 0 1-.113.03h-.074a.21.21 0 0 1-.113-.03.2.2 0 0 1-.077-.084l-1.361-2.324v2.973h-.445V38.86h.388a.323.323 0 0 1 .108.012.15.15 0 0 1 .072.071l1.343 2.279a.812.812 0 0 1 .067.132zm4.947-.183v1.386h-.514V38.86h1.147a2.25 2.25 0 0 1 .64.08c.167.045.321.124.453.23.114.1.202.225.257.363.06.151.09.312.088.473.002.162-.03.323-.096.473a1.013 1.013 0 0 1-.277.37 1.27 1.27 0 0 1-.456.245c-.2.061-.41.09-.62.086l-.622-.01zm0-.398h.623c.135.002.27-.017.398-.056a.843.843 0 0 0 .288-.16.651.651 0 0 0 .175-.244.768.768 0 0 0 .062-.312.677.677 0 0 0-.052-.3.707.707 0 0 0-.18-.253 1.033 1.033 0 0 0-.691-.199h-.623v1.524zm6.914 1.789h-.406a.181.181 0 0 1-.114-.034.226.226 0 0 1-.067-.086l-.35-.894h-1.756l-.363.894a.2.2 0 0 1-.064.083.181.181 0 0 1-.116.037h-.406l1.543-3.703h.535l1.564 3.703zm-2.546-1.375h1.45l-.612-1.507a2.6 2.6 0 0 1-.116-.348l-.059.194a1.84 1.84 0 0 1-.056.157l-.607 1.504zm4.768-2.311c.031.017.058.04.078.067l2.25 2.79v-2.874h.46v3.703h-.257a.23.23 0 0 1-.105-.022.283.283 0 0 1-.082-.069l-2.249-2.788a.897.897 0 0 1 0 .127v2.753h-.46v-3.704h.273c.032 0 .063.005.092.017zm6.58 2.213v1.47h-.515v-1.47l-1.422-2.23h.46a.173.173 0 0 1 .111.032.314.314 0 0 1 .07.084l.89 1.438c.035.061.066.118.092.172.026.053.046.105.064.156l.067-.159a1.3 1.3 0 0 1 .088-.169l.877-1.448a.379.379 0 0 1 .067-.079.161.161 0 0 1 .11-.036h.466l-1.425 2.24zm-20.917-8.444c.224.027.45.05.68.069 3.47-1.48 6.406-3.9 8.44-6.96a17.782 17.782 0 0 0 2.998-10.246l-3.825-3.644a20.22 20.22 0 0 1-1.05 11.512c-1.465 3.67-3.973 6.88-7.243 9.27z"
      fill="#AFB1B8"></path>
    <path d="M14.72 32.475l.103.02c3.494-2.382 6.159-5.707 7.648-9.546a19.54 19.54 0 0 0 .707-11.99L17.73 5.77a24.082 24.082 0 0 1 2.558 13.768c-.533 4.728-2.464 9.214-5.568 12.938zm18.476-12.689c-.925 3.98-3.173 7.568-6.41 10.234a20.218 20.218 0 0 1-3.045 2.082 18.187 18.187 0 0 0 7.08-3.813 17.085 17.085 0 0 0 4.585-6.4l-2.21-2.103z"
      fill="#AFB1B8"></path>
    <path d="M32.33 19.2l-3.146-2.997a18.474 18.474 0 0 1-2.953 9.67c-1.873 2.915-4.532 5.299-7.699 6.903h.016c.706 0 1.41-.04 2.112-.12a19.338 19.338 0 0 0 7.61-5.33 18.092 18.092 0 0 0 4.06-8.126zM15.176 3.58L11.423 0c-3.355 1.235-6.24 3.406-8.278 6.23C1.107 9.053.01 12.397 0 15.823c.013 3.787 1.35 7.46 3.801 10.441 2.451 2.98 5.875 5.097 9.731 6.015 3.442-3.995 5.457-8.932 5.753-14.093.295-5.161-1.144-10.277-4.11-14.606zM41 18.649c-.014-4.492-1.893-8.797-5.227-11.973-3.334-3.177-7.852-4.967-12.567-4.98a18.379 18.379 0 0 0-6.371 1.13l22.977 21.89A16.072 16.072 0 0 0 41 18.65z"
      fill="#AFB1B8"></path>
  </symbol>
  <symbol viewBox="0 0 80 43" fill="none" xmlns="http://www.w3.org/2000/svg" id="logo_4">
    <path d="M12.402 12.83h-.003c-2.262 0-4.096 1.788-4.096 3.992v.003c0 2.204 1.834 3.992 4.096 3.992h.003c2.262 0 4.096-1.788 4.096-3.992v-.003c0-2.204-1.834-3.991-4.096-3.991zm30.235-1.275c-.007-3.063-1.258-5.997-3.48-8.163C36.938 1.227 33.926.007 30.784 0c-3.143.006-6.156 1.225-8.379 3.39-2.223 2.166-3.474 5.102-3.48 8.165V28.44s23.71-2.573 23.713-16.883v-.002zM0 33.982a7.96 7.96 0 0 0 2.422 5.68 8.384 8.384 0 0 0 5.827 2.362 8.384 8.384 0 0 0 5.826-2.361 7.96 7.96 0 0 0 2.423-5.678v-11.75S0 24.029 0 33.983zm8.25 2.105a2.2 2.2 0 0 1-1.201-.354 2.117 2.117 0 0 1-.796-.945 2.055 2.055 0 0 1-.123-1.216c.084-.409.29-.784.592-1.078a2.178 2.178 0 0 1 1.106-.576 2.2 2.2 0 0 1 1.248.12c.395.159.732.429.97.775a2.068 2.068 0 0 1 .201 1.977 2.1 2.1 0 0 1-.467.686c-.201.196-.44.352-.702.458a2.21 2.21 0 0 1-.829.161v-.008zm16.84-1.306h-1.688v1.743h-.88V32.26H25.3v.712h-1.898v1.101h1.687v.71zm4.224-.293c0 .42-.075.788-.223 1.105a1.67 1.67 0 0 1-.639.732 1.755 1.755 0 0 1-.949.258c-.353 0-.669-.085-.946-.255a1.695 1.695 0 0 1-.645-.726 2.511 2.511 0 0 1-.231-1.09V34.3c0-.42.075-.79.226-1.108.152-.32.366-.565.641-.735.277-.172.594-.258.95-.258.355 0 .67.086.946.258.277.17.49.415.641.735.152.319.229.687.229 1.105v.19zm-.89-.193c0-.447-.081-.787-.241-1.02a.783.783 0 0 0-.686-.348.782.782 0 0 0-.682.346c-.16.228-.242.564-.244 1.007v.208c0 .436.08.774.24 1.014.16.24.391.36.692.36a.775.775 0 0 0 .68-.345c.158-.233.238-.57.24-1.014v-.208zm3.74 1.11a.447.447 0 0 0-.176-.38c-.117-.09-.328-.184-.632-.282a4.565 4.565 0 0 1-.724-.293c-.484-.262-.727-.614-.727-1.057 0-.23.065-.436.194-.616.13-.181.317-.323.56-.425.244-.101.517-.152.82-.152.304 0 .576.056.814.167.239.11.423.265.554.466.133.201.2.43.2.686h-.88c0-.196-.061-.347-.184-.454-.123-.11-.296-.165-.519-.165-.215 0-.382.046-.5.138a.426.426 0 0 0-.18.358c0 .138.07.254.208.348.141.094.347.182.619.264.5.15.864.337 1.092.56.229.222.343.5.343.831 0 .37-.14.66-.419.87-.28.21-.655.314-1.128.314-.328 0-.627-.06-.896-.179a1.438 1.438 0 0 1-.618-.495 1.27 1.27 0 0 1-.211-.726h.881c0 .47.282.706.844.706.21 0 .372-.042.49-.126a.418.418 0 0 0 .175-.358zm4.69-2.434h-1.306v3.553h-.879v-3.553H33.38v-.712h3.475v.712zm3.071 1.705h-1.688v1.142h1.981v.706h-2.86V32.26h2.854v.712h-1.975v1.016h1.688v.689zm2.388.287h-.7v1.561h-.88V32.26h1.586c.503 0 .892.112 1.166.337.273.224.41.542.41.952 0 .29-.064.534-.19.73a1.282 1.282 0 0 1-.572.462l.923 1.743v.041h-.944l-.8-1.561zm-.7-.712h.709c.22 0 .391-.056.512-.167a.607.607 0 0 0 .182-.466c0-.201-.058-.36-.173-.474-.113-.116-.288-.173-.524-.173h-.707v1.28zm5.326.77v1.503h-.88V32.26h1.665c.32 0 .601.058.844.176.244.117.431.284.562.5.131.215.196.46.196.736 0 .418-.143.748-.43.99-.285.24-.68.36-1.187.36h-.77zm0-.711h.785c.232 0 .409-.055.53-.165.123-.109.185-.265.185-.468a.704.704 0 0 0-.185-.507c-.123-.129-.293-.195-.51-.2h-.805v1.34zm5.56.366h-1.687v1.142h1.98v.706h-2.86V32.26h2.854v.712h-1.974v1.016h1.687v.689zm4.078-1.705h-1.306v3.553h-.88v-3.553h-1.288v-.712h3.474v.712zm3.07 1.705H57.96v1.142h1.98v.706h-2.859V32.26h2.854v.712H57.96v1.016h1.688v.689zm2.388.287h-.7v1.561h-.879V32.26h1.585c.504 0 .893.112 1.166.337.274.224.41.542.41.952 0 .29-.063.534-.19.73a1.283 1.283 0 0 1-.571.462l.922 1.743v.041h-.943l-.8-1.561zm-.7-.712h.71c.22 0 .39-.056.512-.167a.607.607 0 0 0 .181-.466c0-.201-.057-.36-.172-.474-.114-.116-.288-.173-.525-.173h-.706v1.28zm5.165 1.154a.447.447 0 0 0-.176-.38c-.117-.09-.328-.184-.632-.282a4.56 4.56 0 0 1-.724-.293c-.484-.262-.727-.614-.727-1.057 0-.23.065-.436.194-.616.13-.181.317-.323.56-.425a2.12 2.12 0 0 1 .82-.152c.304 0 .576.056.814.167.238.11.423.265.554.466.133.201.199.43.199.686h-.879c0-.196-.061-.347-.184-.454-.124-.11-.296-.165-.519-.165-.215 0-.382.046-.501.138a.426.426 0 0 0-.179.358c0 .138.07.254.208.348.141.094.347.182.618.264.5.15.865.337 1.093.56.229.222.343.5.343.831 0 .37-.14.66-.419.87-.28.21-.655.314-1.128.314-.328 0-.627-.06-.896-.179a1.439 1.439 0 0 1-.618-.495 1.27 1.27 0 0 1-.211-.726h.881c0 .47.282.706.844.706.21 0 .372-.042.49-.126a.418.418 0 0 0 .175-.358z"
      fill="#2196F3"></path>
  </symbol>
  <symbol viewBox="0 0 59 47" fill="none" xmlns="http://www.w3.org/2000/svg" id="logo_5">
    <path d="M4.488 39.278c.23.285.352.643.346 1.01a1.604 1.604 0 0 1-.536 1.277c-.447.339-1 .504-1.559.466H0v-6.405h2.683a2.284 2.284 0 0 1 1.487.426 1.464 1.464 0 0 1 .52 1.198c.016.353-.095.7-.311.98a1.46 1.46 0 0 1-.817.5c.363.067.692.26.926.548zm-3.213-.967H2.42c.261.02.52-.056.73-.213a.761.761 0 0 0 .246-.626.788.788 0 0 0-.243-.625 1.106 1.106 0 0 0-.751-.216H1.275v1.68zm1.988 2.456a.796.796 0 0 0 .271-.65.81.81 0 0 0-.277-.658 1.18 1.18 0 0 0-.78-.231H1.276v1.761h1.218c.274.016.546-.062.77-.222zm6.71 1.264L8.48 39.528h-.561v2.503H6.635v-6.405h2.43a2.39 2.39 0 0 1 1.693.545 2.047 2.047 0 0 1 .18 2.65c-.3.345-.709.575-1.159.65l1.59 2.56H9.973zm-2.054-3.376h1.05c.73 0 1.094-.323 1.094-.97a.956.956 0 0 0-.268-.72 1.135 1.135 0 0 0-.826-.26H7.906l.013 1.95zm9.071 2.087h-2.558l-.452 1.29h-1.346l2.35-6.334h1.455l2.34 6.333h-1.346l-.442-1.289zm-.342-.97l-.935-2.703-.935 2.703h1.87zm9.128 2.259H24.5l-2.858-4.355v4.355h-1.271v-6.405h1.271l2.858 4.38v-4.38h1.275v6.405zm7.274-1.533a2.757 2.757 0 0 1-1.153 1.13 3.742 3.742 0 0 1-1.792.403h-2.27v-6.405h2.27a3.816 3.816 0 0 1 1.791.395c.488.246.89.636 1.154 1.117a3.736 3.736 0 0 1 0 3.36zm-1.459-.153a2.352 2.352 0 0 0 0-3.057 2.21 2.21 0 0 0-1.596-.545h-.885v4.146h.886a2.21 2.21 0 0 0 1.595-.544zM17.788 0S34.24 6.236 33.892 15.26v15.263s-16.44-6.24-16.096-15.263L17.788 0zm30.759 26.95A22.486 22.486 0 0 1 59 23.082v-4.778a21.467 21.467 0 0 0-10.453 8.646z"
      fill="#AFB1B8"></path>
    <path d="M46.68 28.389A22.382 22.382 0 0 1 59 17.303V3.536s-23.43 8.883-22.934 21.733V47s1.044-.397 2.687-1.142c0-.695 0-1.395.074-2.1a22.606 22.606 0 0 1 7.854-15.369z" fill="#AFB1B8"></path>
    <path d="M44.453 36.462c.123-1.507.397-2.998.82-4.45a21.04 21.04 0 0 0-4.962 13.126 68.028 68.028 0 0 0 4.506-2.384 22.573 22.573 0 0 1-.364-6.292zm.931.078a21.58 21.58 0 0 0 .29 5.698c6.401-3.846 13.594-9.788 13.317-16.968v-.626a20.972 20.972 0 0 0-12.18 5.713 21.492 21.492 0 0 0-1.427 6.183z"
      fill="#AFB1B8"></path>
  </symbol>
  <symbol viewBox="0 0 89 46" fill="none" xmlns="http://www.w3.org/2000/svg" id="logo_6">
    <path d="M44.74 21.353a3.258 3.258 0 0 1-.57-2.057v-2.982c0-.915.19-1.61.567-2.085.378-.475 1.028-.712 1.949-.71.865 0 1.48.202 1.843.607.396.516.589 1.147.545 1.784v.7h-1.548v-.71a3.961 3.961 0 0 0-.045-.694.689.689 0 0 0-.221-.413.836.836 0 0 0-.561-.16.886.886 0 0 0-.59.17.81.81 0 0 0-.256.455c-.045.243-.065.49-.061.737v3.62a2 2 0 0 0 .198 1.016.735.735 0 0 0 .31.247.78.78 0 0 0 .399.057.788.788 0 0 0 .548-.164.747.747 0 0 0 .23-.44c.037-.24.053-.483.049-.725v-.735h1.548v.67a2.914 2.914 0 0 1-.536 1.876c-.355.443-.961.664-1.852.664-.891 0-1.564-.236-1.946-.728zm6.446.031c-.391-.465-.587-1.141-.587-2.036V16.21c0-.886.196-1.556.587-2.011.39-.455 1.044-.682 1.961-.68.91 0 1.56.227 1.952.68.39.455.59 1.125.59 2.011v3.138c0 .886-.2 1.565-.596 2.033-.398.467-1.045.7-1.946.7-.9 0-1.567-.236-1.961-.697zm2.682-.753c.14-.29.204-.61.186-.928v-3.841a1.843 1.843 0 0 0-.183-.91.738.738 0 0 0-.316-.25.785.785 0 0 0-.408-.054.794.794 0 0 0-.41.054.749.749 0 0 0-.317.25 1.795 1.795 0 0 0-.186.91v3.859c-.02.32.044.638.186.928a.96.96 0 0 0 .326.23 1.009 1.009 0 0 0 .796 0 .96.96 0 0 0 .326-.23v-.018zm3.682-7.021h1.667l1.253 5.79 1.282-5.79h1.622l.163 8.356H62.34l-.128-5.807-1.238 5.807h-.961l-1.282-5.828-.119 5.828H57.4l.15-8.355zm7.856 0h2.596c1.495 0 2.243.791 2.243 2.373 0 1.515-.787 2.271-2.362 2.27H67v3.713h-1.603l.01-8.355zm2.218 3.571c.158.02.319.006.47-.04.153-.045.293-.122.411-.223.184-.283.265-.614.23-.944a2.854 2.854 0 0 0-.076-.758.63.63 0 0 0-.118-.23.67.67 0 0 0-.203-.168 1.528 1.528 0 0 0-.714-.133h-.622v2.496h.622zm4.932-3.571h1.721l1.766 8.356h-1.494l-.349-1.927h-1.535l-.359 1.927H70.79l1.766-8.355zm1.471 5.462l-.6-3.508-.599 3.508h1.2zm3.443-5.462h1.12l2.148 4.767V13.61h1.33v8.355h-1.067l-2.16-4.976v4.976h-1.375l.003-8.355zm7.713 5.17l-1.785-5.158h1.503l1.09 3.313 1.022-3.313h1.471l-1.762 5.158v3.186h-1.539V18.78zm-37.968 6.839v.437h-1.308v3.395h-.548v-3.395h-1.314v-.437h3.17zm4.099 3.832h-.423a.176.176 0 0 1-.119-.036.196.196 0 0 1-.07-.088l-.378-.91H48.51l-.379.91a.257.257 0 0 1-.057.103.183.183 0 0 1-.119.036h-.423l1.603-3.832h.557l1.622 3.817zm-2.654-1.423h1.513l-.641-1.56a2.964 2.964 0 0 1-.119-.36l-.06.203-.058.16-.635 1.557zm5.417 1.047c.1.005.2.005.3 0 .087-.009.173-.024.257-.046a1.82 1.82 0 0 0 .23-.07c.071-.027.142-.06.216-.093v-.862h-.641a.12.12 0 0 1-.087-.03.084.084 0 0 1-.032-.07v-.295h1.244v1.469a2.355 2.355 0 0 1-.677.312 2.653 2.653 0 0 1-.4.08 4.455 4.455 0 0 1-.468.024 2.252 2.252 0 0 1-.808-.143 1.935 1.935 0 0 1-.64-.4 1.849 1.849 0 0 1-.414-.607 2.074 2.074 0 0 1-.148-.795 2.155 2.155 0 0 1 .145-.802c.092-.227.232-.433.413-.606.183-.173.401-.308.641-.398.274-.098.566-.146.859-.142.15 0 .298.01.445.033.13.02.258.052.382.097.112.04.22.09.32.152.099.06.192.127.28.2l-.155.237a.14.14 0 0 1-.052.052.15.15 0 0 1-.073.02.196.196 0 0 1-.1-.03 1.906 1.906 0 0 1-.156-.09 1.369 1.369 0 0 0-.215-.104 1.869 1.869 0 0 0-.295-.085 2.256 2.256 0 0 0-.407-.033 1.743 1.743 0 0 0-.618.106c-.179.068-.34.171-.471.303-.133.138-.235.3-.298.477a1.953 1.953 0 0 0 0 1.277c.07.18.179.345.32.482.132.132.291.235.468.304.204.066.42.092.635.076zm5.108-.061h1.75v.437H58.65v-3.832h.548l-.013 3.395zm3.57.436h-.548v-3.83h.548v3.832zm2.039-3.813a.27.27 0 0 1 .083.07l2.343 2.889a.972.972 0 0 1 0-.137v-2.855h.477v3.847h-.275a.24.24 0 0 1-.119-.021.314.314 0 0 1-.086-.073l-2.34-2.885v2.979h-.458V25.62h.285a.23.23 0 0 1 .09.018zm6.938-.018v.422H69.79v1.265h1.574v.406H69.79v1.308h1.942v.422h-2.506v-3.823h2.506zM14.303 1.954l24.335 6.541v22.922L14.305 24.88V1.954zM12.743 0v25.992l27.453 7.382V7.384L12.743 0z"
      fill="#AFB1B8"></path>
    <path d="M27.456 45.44L0 38.052v-25.99l27.456 7.385V45.44z" fill="#AFB1B8"></path>
    <path d="M13.198 1.66l24.017 6.459-10.214 9.672-24.02-6.462 10.217-9.67zM12.743 0L0 12.063l27.456 7.385 12.74-12.063L12.743 0zm16.258 43.978l11.195-10.6-11.195-3.013v13.613z" fill="#AFB1B8"></path>
  </symbol>
  <symbol viewBox="0 0 41 43" fill="none" xmlns="http://www.w3.org/2000/svg" id="Object">
    <path d="M6.345 41.795a.118.118 0 0 1 .08.034l.206.216c-.16.174-.357.314-.579.409a2.07 2.07 0 0 1-.82.147 2.01 2.01 0 0 1-.772-.137 1.672 1.672 0 0 1-.957-.986 2.163 2.163 0 0 1-.13-.767 2.017 2.017 0 0 1 .14-.77c.09-.222.226-.425.4-.597.175-.17.385-.302.617-.39.253-.094.523-.14.794-.137.253-.006.504.036.739.125.203.084.39.2.553.345l-.173.23a.173.173 0 0 1-.044.042.11.11 0 0 1-.069.018.157.157 0 0 1-.075-.025l-.092-.061-.129-.079a1.4 1.4 0 0 0-.406-.137 1.643 1.643 0 0 0-.306-.024 1.532 1.532 0 0 0-.571.102 1.29 1.29 0 0 0-.448.29c-.128.133-.227.29-.29.46a1.665 1.665 0 0 0-.106.608c-.003.21.033.42.106.618.062.169.16.325.285.458.118.125.264.222.427.285.168.066.348.1.53.098.105.001.21-.005.314-.02.17-.02.332-.076.476-.164.072-.045.14-.096.203-.152a.153.153 0 0 1 .097-.04zm5.942-1.085c.003.26-.044.52-.139.763a1.655 1.655 0 0 1-.387.592 1.754 1.754 0 0 1-.608.388 2.296 2.296 0 0 1-1.564 0 1.777 1.777 0 0 1-.604-.39 1.74 1.74 0 0 1-.391-.597 2.167 2.167 0 0 1 0-1.527 1.78 1.78 0 0 1 .39-.6 1.78 1.78 0 0 1 .605-.375 2.258 2.258 0 0 1 1.564 0c.228.088.435.22.607.39.17.17.301.37.388.59.095.245.143.505.14.767zm-.54 0a1.759 1.759 0 0 0-.098-.612 1.208 1.208 0 0 0-.71-.747 1.658 1.658 0 0 0-1.137 0 1.208 1.208 0 0 0-.712.747c-.13.4-.13.827 0 1.226a1.203 1.203 0 0 0 .712.745c.367.13.77.13 1.137 0a1.21 1.21 0 0 0 .435-.287c.123-.134.217-.29.275-.458.07-.198.102-.405.098-.613zm4.593.643l.055.137a2.56 2.56 0 0 1 .059-.137 1.28 1.28 0 0 1 .067-.135l1.314-2.276c.026-.04.05-.064.075-.071a.323.323 0 0 1 .108-.012h.388v3.702h-.46v-2.836a1.13 1.13 0 0 1 0-.128l-1.322 2.309a.202.202 0 0 1-.078.084.216.216 0 0 1-.113.03h-.074a.21.21 0 0 1-.113-.03.2.2 0 0 1-.077-.084l-1.361-2.324v2.973h-.445V38.86h.388a.323.323 0 0 1 .108.012.15.15 0 0 1 .072.071l1.343 2.279a.812.812 0 0 1 .067.132zm4.947-.183v1.386h-.514V38.86h1.147a2.25 2.25 0 0 1 .64.08c.167.045.321.124.453.23.114.1.202.225.257.363.06.151.09.312.088.473.002.162-.03.323-.096.473a1.013 1.013 0 0 1-.277.37 1.27 1.27 0 0 1-.456.245c-.2.061-.41.09-.62.086l-.622-.01zm0-.398h.623c.135.002.27-.017.398-.056a.843.843 0 0 0 .288-.16.651.651 0 0 0 .175-.244.768.768 0 0 0 .062-.312.677.677 0 0 0-.052-.3.707.707 0 0 0-.18-.253 1.033 1.033 0 0 0-.691-.199h-.623v1.524zm6.914 1.789h-.406a.181.181 0 0 1-.114-.034.226.226 0 0 1-.067-.086l-.35-.894h-1.756l-.363.894a.2.2 0 0 1-.064.083.181.181 0 0 1-.116.037h-.406l1.543-3.703h.535l1.564 3.703zm-2.546-1.375h1.45l-.612-1.507a2.6 2.6 0 0 1-.116-.348l-.059.194a1.84 1.84 0 0 1-.056.157l-.607 1.504zm4.768-2.311c.031.017.058.04.078.067l2.25 2.79v-2.874h.46v3.703h-.257a.23.23 0 0 1-.105-.022.283.283 0 0 1-.082-.069l-2.249-2.788a.897.897 0 0 1 0 .127v2.753h-.46v-3.704h.273c.032 0 .063.005.092.017zm6.58 2.213v1.47h-.515v-1.47l-1.422-2.23h.46a.173.173 0 0 1 .111.032.314.314 0 0 1 .07.084l.89 1.438c.035.061.066.118.092.172.026.053.046.105.064.156l.067-.159a1.3 1.3 0 0 1 .088-.169l.877-1.448a.379.379 0 0 1 .067-.079.161.161 0 0 1 .11-.036h.466l-1.425 2.24zm-20.917-8.444c.224.027.45.05.68.069 3.47-1.48 6.406-3.9 8.44-6.96a17.782 17.782 0 0 0 2.998-10.246l-3.825-3.644a20.22 20.22 0 0 1-1.05 11.512c-1.465 3.67-3.973 6.88-7.243 9.27z"
      fill="#AFB1B8"></path>
    <path d="M14.72 32.475l.103.02c3.494-2.382 6.159-5.707 7.648-9.546a19.54 19.54 0 0 0 .707-11.99L17.73 5.77a24.082 24.082 0 0 1 2.558 13.768c-.533 4.728-2.464 9.214-5.568 12.938zm18.476-12.689c-.925 3.98-3.173 7.568-6.41 10.234a20.218 20.218 0 0 1-3.045 2.082 18.187 18.187 0 0 0 7.08-3.813 17.085 17.085 0 0 0 4.585-6.4l-2.21-2.103z"
      fill="#AFB1B8"></path>
    <path d="M32.33 19.2l-3.146-2.997a18.474 18.474 0 0 1-2.953 9.67c-1.873 2.915-4.532 5.299-7.699 6.903h.016c.706 0 1.41-.04 2.112-.12a19.338 19.338 0 0 0 7.61-5.33 18.092 18.092 0 0 0 4.06-8.126zM15.176 3.58L11.423 0c-3.355 1.235-6.24 3.406-8.278 6.23C1.107 9.053.01 12.397 0 15.823c.013 3.787 1.35 7.46 3.801 10.441 2.451 2.98 5.875 5.097 9.731 6.015 3.442-3.995 5.457-8.932 5.753-14.093.295-5.161-1.144-10.277-4.11-14.606zM41 18.649c-.014-4.492-1.893-8.797-5.227-11.973-3.334-3.177-7.852-4.967-12.567-4.98a18.379 18.379 0 0 0-6.371 1.13l22.977 21.89A16.072 16.072 0 0 0 41 18.65z"
      fill="#AFB1B8"></path>
  </symbol>
  <symbol viewBox="0 0 10 16" fill="none" xmlns="http://www.w3.org/2000/svg" id="smartphone">
    <path d="M8.5 0h-7C.673 0 0 .673 0 1.5v13c0 .827.673 1.5 1.5 1.5h7c.827 0 1.5-.673 1.5-1.5v-13C10 .673 9.327 0 8.5 0zm-7 1h7a.5.5 0 0 1 .5.5V12H1V1.5a.5.5 0 0 1 .5-.5zm7 14h-7a.5.5 0 0 1-.5-.5V13h8v1.5a.5.5 0 0 1-.5.5z" fill="#757575"></path>
    <path d="M2.354 13.739a.445.445 0 0 1 0 .66.525.525 0 0 1-.708 0 .445.445 0 0 1 0-.66.525.525 0 0 1 .708 0z" fill="#757575"></path>
  </symbol>
  <symbol aria-hidden="true" xmlns="http://www.w3.org/2000/svg" overflow="hidden" id="symbol-defs">
    <defs>
      <symbol id="icon-antenna" viewBox="0 0 32 32">
        <path fill="var(--color1, #afb1b8)" d="M30.773 22.098l-8.443-8.505.937-4.616c.225.09.485.144.758.146h.033a2.16 2.16 0 1 0-2.029-1.42l-.005-.015-4.96.606L8.973.161a.53.53 0 0 0-.376-.16.536.536 0 0 0-.373.155L6.712 1.66a.535.535 0 0 0 0 .754l.814.825C6.383 5.301 5.71 7.761 5.71 10.378c0 4.106 1.656 7.824 4.336 10.525l-.001-.001a.49.49 0 0 0 .146.097 2.986 2.986 0 0 0-.052.546v6.188h-6.4a2.669 2.669 0 0 0-2.667 2.666v1.067c0 .295.239.534.534.534H26.14a.534.534 0 0 0 .533-.534v-1.067a2.67 2.67 0 0 0-2.666-2.666h-6.4v-2.742a14.64 14.64 0 0 0 3.047.32h.002a14.784 14.784 0 0 0 7.117-1.822l-.077.039.818.823a.534.534 0 0 0 .376.16.536.536 0 0 0 .373-.155l1.512-1.504a.535.535 0 0 0 0-.754zM23.28 6.233a1.067 1.067 0 1 1 .752 1.822h-.004a1.066 1.066 0 0 1-.747-1.822h-.002zm-1.256 3.504l-.598 2.946-1.175-1.183 1.774-1.763zm-.605-.902l-1.92 1.909-1.486-1.493 3.406-.416zM24.004 28.8a1.6 1.6 0 0 1 1.6 1.6v.534H2.138V30.4a1.6 1.6 0 0 1 1.6-1.6h20.267zm-7.466-2.134v1.067h-5.334v-1.067h5.334zM11.204 25.6v-4.053c0-1.294 1.196-2.346 2.667-2.346s2.667 1.053 2.667 2.346V25.6h-5.334zm6.4-1.696v-2.357c0-1.882-1.675-3.413-3.733-3.413h-.058c-1.353 0-2.54.707-3.213 1.771l-.009.016a13.817 13.817 0 0 1-3.812-9.55c0-2.314.567-4.496 1.569-6.414l-.036.077 18.602 18.709c-1.823.947-3.979 1.502-6.266 1.502-1.079 0-2.128-.124-3.136-.357l.093.018zm11.289-.684L7.836 2.039l.754-.752 7.935 7.98c.004 0 .006.007.009.01l13.115 13.191-.757.752z"></path>
        <path fill="var(--color2, #afb1b8)" d="M13.876 20.267h-.007a1.6 1.6 0 0 0-.003 3.2h.007a1.6 1.6 0 0 0 .002-3.2zm.373 1.978a.534.534 0 1 1-.378-.912.533.533 0 0 1 .373.911h.005z"></path>
      </symbol>
      <symbol id="icon-astronaut" viewBox="0 0 32 32">
        <path fill="var(--color2, #afb1b8)" d="M31.974 4.524a.535.535 0 0 0-.427-.362h-.003l-1.911-.278-.855-1.731c-.179-.365-.777-.365-.956 0l-.855 1.731-1.911.278a.534.534 0 0 0-.296.91l1.383 1.348-.326 1.903a.532.532 0 1 0 .774.562l1.709-.899 1.709.899a.534.534 0 0 0 .773-.565v.003l-.326-1.903 1.383-1.348a.535.535 0 0 0 .134-.55l.001.004zm-2.463 1.327a.53.53 0 0 0-.153.472l.191 1.114-1-.526a.525.525 0 0 0-.501.001l.003-.001-1 .526.191-1.114a.53.53 0 0 0-.152-.472l-.811-.789 1.119-.163a.532.532 0 0 0 .402-.292l.5-1.013.5 1.013a.532.532 0 0 0 .402.292l1.119.162-.809.79zm-3.377 14.671h-1.067v1.067h1.067v-1.067zm0 2.134h-1.067v1.066h1.067v-1.066zm1.066-1.067h-1.067v1.067H27.2v-1.067zm-2.133 0H24v1.067h1.067v-1.067zm-2.667 4.8h-1.067v1.067H22.4v-1.067zm0 2.134h-1.067v1.067H22.4v-1.067zm1.067-1.067H22.4v1.067h1.067v-1.067zm-2.133 0h-1.067v1.067h1.067v-1.067zM16 24.256h-1.066v1.067H16v-1.067zm0 2.133h-1.066v1.067H16v-1.067zm1.067-1.067H16v1.067h1.067v-1.067zm-2.133 0h-1.067v1.067h1.067v-1.067zm-9.067-19.2H4.801v1.066h1.066V6.122zm0 2.134H4.801v1.066h1.066V8.256zm1.066-1.067H5.866v1.067h1.066V7.189zm-2.133 0H3.733v1.067H4.8V7.189z"></path>
        <path fill="var(--color1, #afb1b8)" d="M24.715 14.16a1.774 1.774 0 0 0-1.179-.703l-.009-.001a1.769 1.769 0 0 0-1.344.355l.004-.003-1.253.96-1.898 1.417-1.358-.541c2.421-1.086 4.113-3.508 4.113-6.32 0-3.823-3.122-6.934-6.961-6.934S7.869 5.5 7.869 9.324c0 1.386.415 2.674 1.12 3.759l-2.768-.024c-.009 0-.016.005-.023.005a.511.511 0 0 0-.159.033l.004-.001c-.013.005-.026.007-.038.013-.006.003-.013.003-.019.006l-3.233 1.596-.001.001-1.893.91a.429.429 0 0 0-.064.036l.001-.001a1.782 1.782 0 0 0-.594 2.306l-.005-.01c.22.424.592.742 1.043.885l.013.003a1.772 1.772 0 0 0 1.388-.133l-.009.005 1.388-.738 2.264-1.169 1.357-.008-5.442 5.415-.001.001-1.339 1.333a1.643 1.643 0 0 0-.491 1.173v.005a1.668 1.668 0 0 0 1.667 1.664h.002a1.67 1.67 0 0 0 1.18-.485l1.314-1.309 1.741-1.3.901.897-3.102 3.088a1.645 1.645 0 0 0-.491 1.174v.004a1.662 1.662 0 0 0 1.666 1.664h.003a1.67 1.67 0 0 0 1.18-.485l4.488-4.472c.007-.006.016-.009.022-.016l5.166-5.658 3.471.494a.474.474 0 0 0 .262-.032c.017-.006.032-.015.049-.023.019-.01.039-.015.058-.027l3.213-2.133c.012-.008.018-.021.029-.03.013-.01.029-.014.041-.026l1.271-1.191c.348-.326.564-.787.564-1.3 0-.4-.132-.769-.355-1.066l.003.005zM2.13 17.77a.706.706 0 0 1-.564.05l.005.001a.717.717 0 0 1-.214-1.258l.002-.001 1.314-.632.316.924.133.389-.992.527zm3.497-1.828l-1.548.8-.255-.746-.184-.537 2.027-1.001-.04 1.484zm15.1-6.62c0 .918-.219 1.785-.599 2.56l-4.181-1.899a1.865 1.865 0 0 0-.782-1.384l-.006-.004 1.464-4.86c2.377.756 4.104 2.974 4.104 5.588zm-11.789 0c0-3.235 2.644-5.867 5.894-5.867.253 0 .5.022.745.053l-1.432 4.753c-.019 0-.037-.006-.057-.006h-.001a1.872 1.872 0 0 0-1.872 1.867 1.873 1.873 0 0 0 1.872 1.867h.001c.695 0 1.295-.383 1.618-.944l3.863 1.755a5.893 5.893 0 0 1-4.737 2.389c-3.25 0-5.894-2.632-5.894-5.867zm5.957.8c0 .441-.362.8-.806.8h-.001a.804.804 0 0 1-.804-.8c0-.441.361-.8.806-.8s.806.359.806.8zM2.464 25.146a.606.606 0 0 1-.855.001.591.591 0 0 1 0-.844l.962-.959.852.848-.959.955zm3.214 3.734a.606.606 0 0 1-.855.001.591.591 0 0 1 0-.844l.963-.959.852.848-.96.955zm3.482-3.469l-.001.001-1.765 1.76-.852-.848 1.765-1.757a.527.527 0 0 0 .09-.136c.007-.014.02-.026.026-.04.016-.041.019-.085.026-.128.003-.025.014-.048.014-.073 0-.035-.013-.07-.02-.105-.006-.032-.006-.064-.019-.096a.536.536 0 0 0-.092-.138c-.01-.012-.014-.027-.025-.038h-.001l-.001-.002-1.607-1.6c-.017-.017-.039-.024-.058-.038a.563.563 0 0 0-.084-.057l-.003-.001a.453.453 0 0 0-.09-.031l-.003-.001a.502.502 0 0 0-.101-.02h-.002l-.023-.001a.603.603 0 0 0-.075.005h.003c-.036.005-.069.009-.104.021a.502.502 0 0 0-.096.046l.002-.001c-.02.011-.043.015-.061.029l-1.774 1.324-.901-.897 2.399-2.386 4.36 4.289-.928.919zm6.819-7.017c-.016-.002-.03.004-.046.003l-.027-.001a.562.562 0 0 0-.092.008h.003a.484.484 0 0 0-.187.07l.002-.001a.528.528 0 0 0-.083.062c-.013.011-.028.016-.04.029l-4.698 5.146-4.328-4.256 2.833-2.818a.535.535 0 0 0-.378-.911h-.002l-2.219.013.028-1.607 3.104.027a6.928 6.928 0 0 0 4.978 2.101h.003c.438 0 .864-.046 1.28-.122.04.032.08.064.129.085l2.41.96.152.759.178.885-3.003-.427zm4.041.178l-.313-1.558 1.446-1.08.946 1.257-2.08 1.381zm3.753-2.831l-.837.785-.931-1.237.831-.637a.735.735 0 0 1 .543-.143.718.718 0 0 1 .621.71.71.71 0 0 1-.226.521z"></path>
        <path fill="var(--color1, #afb1b8)" d="M13.602 18.544l-2.143-2.134a.53.53 0 0 0-.752 0l-2.143 2.133a.535.535 0 0 0 0 .756l2.142 2.134a.53.53 0 0 0 .752 0l2.143-2.134a.532.532 0 0 0 0-.756zm-2.519 1.759l-1.387-1.381 1.386-1.381 1.387 1.381-1.387 1.381zm6.081-15.232l-.258 1.036c.071.018 1.738.452 1.738 2.149h1.067c0-2.017-1.666-2.965-2.547-3.184zm2.547 4.251h-1.067v1.066h1.067V9.322z"></path>
      </symbol>
      <symbol id="icon-box1" viewBox="0 0 40 32">
        <path d="M0 0h40.272v32H0z"></path>
      </symbol>
      <symbol id="icon-box2" viewBox="0 0 40 32">
        <path d="M0 0h40.272v32H0z"></path>
      </symbol>
      <symbol id="icon-box3" viewBox="0 0 40 32">
        <path d="M0 0h40.272v32H0V0z"></path>
      </symbol>
      <symbol id="icon-clock" viewBox="0 0 32 32">
        <path fill="var(--color1, #afb1b8)" d="M31.296 15.301C31.295 6.849 24.441-.002 15.988 0S.685 6.855.687 15.308c.002 6.788 4.422 12.543 10.54 14.545l.108.031a.667.667 0 0 0 .529-.065.636.636 0 0 0 .283-.357l3.865-12.25a1.913 1.913 0 1 0-.852-3.63l.011-.005-5.106-5.107a.638.638 0 0 0-.902.902l5.103 5.109a1.873 1.873 0 0 0 .533 2.306l.004.003-3.683 11.673C3.842 25.782.116 17.709 2.796 10.431S13.55-.573 20.828 2.108c7.278 2.681 11.004 10.754 8.323 18.032-1.345 3.581-4.003 6.406-7.374 7.938l-.088.036-.398-1.874a.639.639 0 0 0-1.049-.343l.001-.001-3.837 3.426a.637.637 0 0 0 .227 1.083l.005.001 4.899 1.563a.637.637 0 0 0 .818-.744l.001.004-.391-1.839c5.528-2.374 9.329-7.772 9.329-14.057v-.034.002zm-15.304-.637a.638.638 0 0 1 0 1.276.638.638 0 0 1 0-1.276zm2.1 14.864l2.184-1.948.603 2.84-2.787-.892z"></path>
        <path fill="var(--color2, #afb1b8)" d="M15.354 3.185V4.46a.638.638 0 0 0 1.276 0V3.185a.638.638 0 1 0-1.276 0zM3.876 14.664a.638.638 0 0 0 0 1.276h1.275a.638.638 0 0 0 0-1.276H3.876zm24.232 1.275a.638.638 0 0 0 0-1.276h-1.275a.638.638 0 0 0 0 1.276h1.275z"></path>
      </symbol>
      <symbol id="icon-diagram" viewBox="0 0 32 32">
        <path fill="var(--color2, #afb1b8)" d="M14.926 14.965h1.066v4.798h-1.066v-4.798zm4.264 2.132h1.066v2.665H19.19v-2.665zm-8.529 1.599h1.066v1.066h-1.066v-1.066zm-3.198-.533h1.066v1.599H7.463v-1.599z"></path>
        <path fill="var(--color1, #afb1b8)" d="M1.599 28.291h25.586a1.6 1.6 0 0 0 1.599-1.599V24.56a1.6 1.6 0 0 0-1.599-1.599h-.533V9.667l3.028-2.868a1.608 1.608 0 1 0-.742-.752l-.004-.01-2.281 2.162v-1.23a1.6 1.6 0 0 0-1.599-1.599H3.731a1.6 1.6 0 0 0-1.599 1.599v15.992h-.533A1.6 1.6 0 0 0 0 24.56v2.132a1.6 1.6 0 0 0 1.599 1.599zM30.384 4.837a.533.533 0 0 1 0 1.066.533.533 0 0 1 0-1.066zM3.198 6.969c0-.294.239-.533.533-.533h21.323c.294 0 .533.239.533.533v2.239l-1.066 1.013V8.036a.534.534 0 0 0-.534-.534H4.798a.534.534 0 0 0-.534.533v13.327c0 .294.239.533.534.533h19.189a.534.534 0 0 0 .534-.533v-9.675l1.066-1.01V22.96H3.198V6.969zm4.798 6.93h-.005a1.6 1.6 0 1 0 1.112 2.748l1.853.93a.535.535 0 0 0 .636-.122l3.939-4.432 3.872 2.902a.534.534 0 0 0 .686-.039l3.365-3.188v8.131H5.331V8.568h18.123v2.661l-3.771 3.572-3.904-2.927a.534.534 0 0 0-.718.071v.001l-3.993 4.493-1.493-.746c.011-.064.017-.128.02-.193a1.6 1.6 0 0 0-1.599-1.599zm.533 1.599a.533.533 0 0 1-1.066 0 .533.533 0 0 1 1.066 0zm3.198 8.528h5.33v.533a.533.533 0 0 1-.533.533h-4.265a.533.533 0 0 1-.533-.533v-.533zm-10.66.534c0-.294.238-.533.533-.533h9.062v.533a1.6 1.6 0 0 0 1.599 1.599h4.265a1.6 1.6 0 0 0 1.599-1.599v-.533h9.062c.294 0 .533.239.533.533v2.132a.533.533 0 0 1-.533.533H1.601a.533.533 0 0 1-.533-.533V24.56z"></path>
      </symbol>
      <symbol id="icon-envelope" viewBox="0 0 43 32">
        <path fill="var(--color2, #afb1b8)" d="M38.667 0H4C1.795 0 0 1.795 0 4v24c0 2.205 1.795 4 4 4h34.667c2.205 0 4-1.795 4-4V4c0-2.205-1.795-4-4-4zm0 2.667c.181 0 .355.037.512.104L21.334 18.238 3.489 2.771c.151-.065.327-.104.512-.104h34.667zm0 26.666H4A1.333 1.333 0 0 1 2.667 28V5.587l17.792 15.421c.233.203.539.327.875.327s.642-.124.876-.328l-.002.001L40 5.587V28c0 .736-.597 1.333-1.333 1.333z"></path>
      </symbol>
      <symbol id="icon-facebook" viewBox="0 0 32 32">
        <path fill="var(--color3, #afb1b8)" d="M21.328 5.312h2.923V.224A36.483 36.483 0 0 0 20.143 0h-.156.008c-4.213 0-7.099 2.65-7.099 7.52V12H8.25v5.688h4.646V32h5.699V17.69h4.459l.707-5.688h-5.168V8.08c0-1.643.443-2.768 2.734-2.768z"></path>
      </symbol>
      <symbol id="icon-instagram" viewBox="0 0 32 32">
        <path fill="var(--color3, #afb1b8)" d="M31.968 9.408c-.074-1.701-.349-2.869-.744-3.882a7.84 7.84 0 0 0-1.847-2.837l-.001-.001A7.906 7.906 0 0 0 26.598.861l-.054-.018C25.523.449 24.362.176 22.661.101 20.949.019 20.405 0 16.059 0c-4.344 0-4.888.019-6.595.094-1.701.074-2.869.349-3.88.742a7.847 7.847 0 0 0-2.839 1.85l-.001.001A7.9 7.9 0 0 0 .919 5.465l-.018.054C.506 6.538.232 7.7.157 9.401c-.082 1.712-.101 2.256-.101 6.602 0 4.344.019 4.888.094 6.595.075 1.701.35 2.869.744 3.882a7.915 7.915 0 0 0 1.849 2.837l.001.001c.8.813 1.77 1.443 2.832 1.843 1.019.395 2.182.67 3.882.744 1.707.075 2.251.094 6.595.094 4.346 0 4.89-.019 6.595-.094 1.701-.074 2.869-.349 3.882-.742a8.237 8.237 0 0 0 4.664-4.628l.019-.055c.394-1.019.669-2.182.744-3.882.075-1.707.093-2.251.093-6.595s-.006-4.888-.08-6.595zm-2.88 13.066c-.07 1.563-.333 2.406-.552 2.97a5.336 5.336 0 0 1-3.001 3.024l-.036.013c-.563.219-1.413.482-2.97.55-1.688.075-2.194.094-6.464.094-4.269 0-4.782-.019-6.464-.094-1.563-.069-2.406-.331-2.97-.55a4.953 4.953 0 0 1-1.836-1.192l-.001-.001a4.978 4.978 0 0 1-1.184-1.803l-.011-.034c-.218-.563-.48-1.413-.549-2.97-.075-1.688-.094-2.195-.094-6.464 0-4.27.019-4.784.094-6.464.069-1.563.331-2.406.549-2.97a4.897 4.897 0 0 1 1.198-1.837l.002-.002a4.972 4.972 0 0 1 1.806-1.182l.034-.011c.56-.219 1.411-.48 2.968-.55 1.688-.074 2.194-.093 6.464-.093 4.275 0 4.782.019 6.464.093 1.562.069 2.406.331 2.97.55a4.91 4.91 0 0 1 1.837 1.194c.531.52.938 1.144 1.195 1.84.218.56.48 1.411.549 2.968.075 1.688.094 2.194.094 6.464 0 4.269-.019 4.768-.094 6.458z"></path>
        <path fill="var(--color3, #afb1b8)" d="M16.059 7.782a8.223 8.223 0 0 0-8.219 8.221v.002a8.222 8.222 0 1 0 16.444 0 8.222 8.222 0 0 0-8.222-8.222h-.002zm0 13.552a5.333 5.333 0 0 1 .001-10.666h.001a5.334 5.334 0 1 1 0 10.668zM26.525 7.458a1.92 1.92 0 0 1-3.84 0 1.92 1.92 0 0 1 3.84 0z"></path>
      </symbol>
      <symbol id="icon-linkedin" viewBox="0 0 32 32">
        <path fill="var(--color3, #afb1b8)" d="M31.992 32H32V20.262c0-5.741-1.237-10.163-7.947-10.163-3.227 0-5.392 1.77-6.277 3.45h-.093v-2.914h-6.365v21.363h6.627V21.42c0-2.786.528-5.48 3.978-5.48 3.398 0 3.448 3.179 3.448 5.658V32h6.621zM.528 10.635h6.635V32H.528V10.635zM3.843 0A3.843 3.843 0 0 0 0 3.843c0 2.12 1.722 3.878 3.843 3.878 2.12 0 3.842-1.757 3.842-3.878S5.965.002 3.844 0z"></path>
      </symbol>
      <symbol id="icon-logo_1" viewBox="0 0 29 32">
        <path fill="var(--color3, #afb1b8)" d="M3.84 0l4.677 4.428h13.046v12.351l4.677 4.428V.001H3.84z"></path>
        <path fill="var(--color3, #afb1b8)" d="M0 4.241v20.6h21.76v-8.188L8.655 4.246 0 4.241zm17.615 17.587H3.443V7.973h1.002V20.89h13.17v.938zM6.266 28.662l.524-1.078h.438l-.764 1.437v.838h-.397v-.838l-.764-1.437h.439l.524 1.078zm2.247.667h-.881l-.184.53h-.411l.859-2.275h.355l.861 2.275h-.413l-.186-.53zm-.77-.319h.659l-.33-.944-.33.944zm2.328.234c0-.105.029-.202.086-.289.058-.089.17-.193.339-.314a1.498 1.498 0 0 1-.182-.276l-.004-.008a.568.568 0 0 1-.052-.226c0-.179.054-.319.163-.422s.254-.156.437-.156a.57.57 0 0 1 .406.147c.106.097.16.218.16.361v.003a.497.497 0 0 1-.074.262l.001-.002a.858.858 0 0 1-.233.236l-.003.002-.155.113.44.518a.914.914 0 0 0 .095-.417h.33c0 .28-.065.509-.196.689l.334.396h-.44l-.128-.152a.93.93 0 0 1-.558.183h-.025.001c-.225 0-.405-.06-.54-.179a.597.597 0 0 1-.202-.447v-.021.001zm.753.343a.58.58 0 0 0 .359-.128l-.497-.586-.049.035c-.125.095-.188.203-.188.325 0 .105.034.191.102.256a.375.375 0 0 0 .254.099h.019-.001zm-.21-1.466c0 .088.054.197.161.33l.173-.118.049-.039a.283.283 0 0 0 .097-.212v-.011a.2.2 0 0 0-.067-.149.233.233 0 0 0-.162-.064h-.019a.224.224 0 0 0-.167.075.276.276 0 0 0-.066.179v.01zm4.134.997c-.023.243-.113.432-.269.568s-.364.204-.623.204a.902.902 0 0 1-.48-.128.86.86 0 0 1-.317-.362l-.002-.005a1.302 1.302 0 0 1-.117-.544v-.22c0-.214.038-.403.114-.567a.871.871 0 0 1 .326-.378.913.913 0 0 1 .494-.133c.251 0 .453.068.606.205s.243.329.268.578h-.394c-.019-.163-.067-.281-.144-.353-.076-.073-.188-.109-.336-.109a.464.464 0 0 0-.397.189c-.092.125-.138.309-.141.552v.202c0 .246.044.433.132.563s.218.194.387.194c.155 0 .272-.035.35-.105s.128-.186.148-.348h.394zm2.17-.338c0 .223-.038.419-.115.588a.88.88 0 0 1-.332.388.905.905 0 0 1-.494.134.92.92 0 0 1-.493-.134.897.897 0 0 1-.332-.38l-.002-.006a1.335 1.335 0 0 1-.119-.555v-.023.001-.128c0-.222.038-.418.117-.588s.19-.3.333-.389c.144-.091.308-.136.493-.136s.35.045.493.134c.143.089.255.217.333.384s.118.362.118.584v.126zm-.396-.118c0-.252-.048-.445-.143-.58a.465.465 0 0 0-.384-.202l-.022.001h.001-.016a.468.468 0 0 0-.384.2l-.001.002c-.096.133-.145.323-.147.567v.131c0 .25.049.444.146.58s.233.205.406.205c.175 0 .31-.067.403-.2.095-.133.142-.328.142-.584v-.118z"></path>
      </symbol>
      <symbol id="icon-logo_2" viewBox="0 0 25 32">
        <path fill="var(--color3, #afb1b8)" d="M10.447 1.806h.084c.156 0 .324.015.49.03a13.96 13.96 0 0 1 2.18.329V.403a12.432 12.432 0 0 0-2.207-.357l-.042-.002c-.254-.02-.571-.035-.889-.043h-.284c-1.523.006-3.04.201-4.514.582a18.266 18.266 0 0 0-4.79 1.948v17.475a18.922 18.922 0 0 1 4.431-1.75l.135-.029c1.123-.3 2.433-.51 3.78-.586l.052-.002h.052c.217-.011.433-.017.655-.018V15.83c-1.78.024-3.493.264-5.129.695l.147-.033c-.603.157-1.185.326-1.731.513l-.623.212V3.591l.266-.128C4.4 2.545 6.606 1.95 8.935 1.814l.047-.002.028-.001.029.001h-.001c.248-.012.497-.018.742-.018h.28c.129.003.258.006.388.014z"></path>
        <path fill="var(--color3, #afb1b8)" d="M14.837 3.651h-.016c-.915 0-1.811-.077-2.684-.225l.094.013c-.277-.047-.55-.103-.814-.164V20.55c1.12.277 2.271.412 3.425.404a18.446 18.446 0 0 0 4.644-.61l-.128.029a18.299 18.299 0 0 0 4.877-1.995l-.085.047V1.262a19.021 19.021 0 0 1-4.429 1.751l-.136.03a19.345 19.345 0 0 1-4.746.609zm6.908.299l.623-.209v13.63l-.266.129c-.903.442-1.962.834-3.065 1.118l-.119.026a16.52 16.52 0 0 1-4.074.527c-.411 0-.818-.017-1.214-.052l-.426-.038V5.064l.497.033c.361.023.735.034 1.141.034a21.134 21.134 0 0 0 5.32-.696l-.147.033a28.128 28.128 0 0 0 1.731-.518zM1.684 25.977a.916.916 0 0 0-.661-.281l-.034.001h.002-.014c-.139 0-.272.028-.393.078l.007-.003a.904.904 0 0 0-.51.512l-.002.006a1.001 1.001 0 0 0-.071.386v2.335c-.006.164.026.328.092.479.055.12.135.226.234.313a.824.824 0 0 0 .32.166c.114.031.231.048.349.048a.985.985 0 0 0 .968-.982v-.261H1.36v.222c0 .07-.013.136-.037.198l.001-.004a.38.38 0 0 1-.089.132.426.426 0 0 1-.255.089.308.308 0 0 1-.286-.125l-.001-.001a.548.548 0 0 1-.082-.289l.001-.024v.001-2.177a.74.74 0 0 1 .075-.349.31.31 0 0 1 .262-.143l.038.002H.986h.012c.107 0 .201.052.26.131l.001.001a.493.493 0 0 1 .101.3v.014-.001.202h.604v-.249c0-.143-.027-.28-.077-.405l.003.007a.955.955 0 0 0-.205-.329zm3.626-.026a1.051 1.051 0 0 0-1.058-.191.965.965 0 0 0-.557.511l-.002.006a1.08 1.08 0 0 0-.089.452v2.239c-.004.158.026.314.089.458a.89.89 0 0 0 .237.313.964.964 0 0 0 .322.197 1.049 1.049 0 0 0 1.059-.198l-.001.001a.948.948 0 0 0 .23-.313c.063-.144.093-.301.089-.458v-2.26c0-.156-.033-.304-.092-.438l.003.007a1.016 1.016 0 0 0-.23-.327zm-.285 3.018l.002.035a.398.398 0 0 1-.123.289.446.446 0 0 1-.575 0l.001.001a.398.398 0 0 1-.121-.326v.002-2.239l-.001-.034a.4.4 0 0 1 .123-.289.446.446 0 0 1 .575 0l-.001-.001a.398.398 0 0 1 .121.326v-.002 2.24zm5.047 1v-4.24h-.586l-.771 2.244h-.01l-.777-2.244h-.58v4.239h.606V27.39h.011l.593 1.823h.302l.598-1.823h.01v2.578h.606zm3.441-3.942a.834.834 0 0 0-.342-.232 1.31 1.31 0 0 0-.416-.066h-.024.001-.9v4.24h.604v-1.656h.311c.189.009.376-.031.545-.116a.88.88 0 0 0 .329-.32l.002-.004a1 1 0 0 0 .138-.369c.021-.133.033-.287.033-.444v-.04.002a2.426 2.426 0 0 0-.059-.606.906.906 0 0 0-.223-.39zm-.312 1.292a.538.538 0 0 1-.057.224l.001-.003a.342.342 0 0 1-.154.147l-.002.001a.617.617 0 0 1-.254.054l-.033-.001h.002-.276V26.3h.311l.029-.001c.088 0 .172.02.247.055l-.004-.002a.35.35 0 0 1 .141.154l.001.002a.62.62 0 0 1 .053.236v.282c0 .098.006.201 0 .291H13.2zm3.173-1.59h-.495l-.934 4.24h.604l.177-.911h.823l.178.911h.604l-.957-4.24zm-.557 2.752l.297-1.537h.011l.295 1.537h-.604zm4.46-.198h-.011l-.913-2.554h-.58v4.24h.604v-2.55h.012l.923 2.549h.568v-4.239h-.604v2.554zm3.691-2.554l-.486 1.686h-.012l-.486-1.686h-.639l.83 2.448v1.791h.604v-1.791l.83-2.447h-.64zM0 31.166h.291v.817h.198v-.817h.289v-.167H0v.168zm2.447-.168l-.382.985h.21l.081-.224h.392l.084.224h.215l-.391-.985h-.21zm-.03.595l.134-.365.134.365h-.268zm2.449.027h.228v.127a.378.378 0 0 1-.234.083h-.014a.25.25 0 0 1-.195-.094.406.406 0 0 1-.073-.234l.001-.023v.001c0-.219.095-.329.283-.329l.021-.001c.097 0 .178.067.201.157v.001l.194-.038c-.042-.192-.18-.289-.417-.289h-.013a.492.492 0 0 0-.331.127.48.48 0 0 0-.141.38v-.002.023c0 .132.048.254.127.347l-.001-.001c.087.09.209.146.343.146L4.877 32h-.001.016c.155 0 .296-.06.402-.157v-.388h-.426v.166zm2.471-.622h-.199v.985h.689v-.167h-.49v-.817zm2.089 0h-.199v.985h.199v-.985zm2.043.657l-.404-.657h-.193v.985h.185v-.643l.396.643h.198v-.985h-.182v.658zm1.846-.106h.49v-.167h-.49v-.215h.527v-.168h-.727v.985h.747v-.167h-.548v-.266zm4.477-.163h-.388v-.388h-.198v.984h.198v-.431h.388v.431h.198v-.985h-.198v.388zm1.857.163h.492v-.167h-.492v-.215h.529v-.168h-.726v.985h.746v-.167h-.548v-.266zm2.519.001c.172-.027.258-.118.258-.274a.23.23 0 0 0-.096-.219h-.001a.555.555 0 0 0-.25-.059l-.04.001h.002-.417v.984h.198v-.412h.055c.039 0 .076.008.109.023l-.002-.001a.201.201 0 0 1 .07.072l.215.313h.236l-.12-.192a.704.704 0 0 0-.215-.235l-.002-.002zm-.199-.137h-.146v-.247h.156a.515.515 0 0 1 .205.024l-.004-.001a.13.13 0 0 1-.009.2.537.537 0 0 1-.164.025l-.039-.001h.002zm2.099.136h.49v-.167h-.49v-.215h.529v-.168h-.728v.985h.747v-.167h-.548v-.266z"></path>
      </symbol>
      <symbol id="icon-logo_3" viewBox="0 0 31 32">
        <path fill="var(--color3, #afb1b8)" d="M4.722 31.103c.023.001.044.01.06.025l.153.161c-.119.13-.266.234-.431.304a1.533 1.533 0 0 1-.61.109h-.031a1.5 1.5 0 0 1-.554-.106l.01.004a1.25 1.25 0 0 1-.709-.725l-.003-.009a1.591 1.591 0 0 1-.097-.55v-.044c0-.198.038-.387.108-.56l-.004.01a1.318 1.318 0 0 1 .757-.734c.188-.07.389-.104.591-.102a1.47 1.47 0 0 1 .55.093c.151.063.29.149.412.257l-.129.171a.134.134 0 0 1-.032.031.077.077 0 0 1-.045.014h-.006a.107.107 0 0 1-.056-.019l-.068-.045-.096-.059a1.024 1.024 0 0 0-.296-.101l-.006-.001a1.233 1.233 0 0 0-.209-.018h-.02.001-.016c-.147 0-.288.028-.417.079l.008-.003a.964.964 0 0 0-.333.216 1.002 1.002 0 0 0-.216.342 1.248 1.248 0 0 0-.079.452c-.002.156.025.313.079.46.046.126.119.242.212.341a.863.863 0 0 0 .318.212c.125.049.259.074.394.073.078.001.156-.004.234-.015a.879.879 0 0 0 .505-.235.115.115 0 0 1 .072-.03zm4.422-.807c.002.194-.033.387-.103.568a1.246 1.246 0 0 1-.288.44 1.314 1.314 0 0 1-.444.286l-.009.003a1.695 1.695 0 0 1-1.176-.004l.012.004a1.331 1.331 0 0 1-.45-.29 1.3 1.3 0 0 1-.288-.436l-.003-.009a1.614 1.614 0 0 1 .004-1.147l-.004.011a1.34 1.34 0 0 1 .29-.447 1.32 1.32 0 0 1 .441-.276l.009-.003A1.674 1.674 0 0 1 8.311 29l-.012-.004a1.29 1.29 0 0 1 .741.729c.071.182.106.376.104.571zm-.402 0v-.024c0-.155-.027-.303-.076-.441l.003.009a.907.907 0 0 0-.522-.554l-.006-.002a1.219 1.219 0 0 0-.855.003l.009-.003a.903.903 0 0 0-.528.55l-.002.006a1.465 1.465 0 0 0 0 .912.899.899 0 0 0 .524.552l.006.002c.273.097.573.097.846 0a.903.903 0 0 0 .324-.214.972.972 0 0 0 .205-.341 1.29 1.29 0 0 0 .073-.456zm3.418.478l.041.102c.015-.036.028-.069.044-.102.017-.04.034-.073.052-.105l-.002.005.978-1.694c.019-.03.037-.048.056-.053a.234.234 0 0 1 .066-.009h.015-.001.289v2.755h-.342v-2.11l-.001-.048.001-.05v.002l-.984 1.718a.149.149 0 0 1-.057.062h-.001a.16.16 0 0 1-.082.022h-.057a.151.151 0 0 1-.141-.084v-.001l-1.013-1.73v2.212h-.331v-2.75h.303a.22.22 0 0 1 .068.01h-.002a.107.107 0 0 1 .053.052v.001l.999 1.696c.018.028.035.06.048.094l.001.004zm3.681-.136v1.031h-.383v-2.75h.887c.158 0 .311.022.455.063l-.012-.003a.927.927 0 0 1 .337.171c.085.074.15.167.191.27a.925.925 0 0 1 .066.352.84.84 0 0 1-.071.352.772.772 0 0 1-.205.274l-.001.001a.953.953 0 0 1-.333.181l-.007.002a1.498 1.498 0 0 1-.461.064l-.463-.007zm0-.296h.464c.1.002.201-.013.296-.042a.627.627 0 0 0 .215-.12l-.001.001c.056-.049.1-.11.129-.178l.001-.003a.565.565 0 0 0 .046-.225v-.008l.001-.028a.506.506 0 0 0-.041-.199l.001.003a.544.544 0 0 0-.133-.188.763.763 0 0 0-.517-.148h.003-.464v1.134zm5.146 1.331h-.308a.134.134 0 0 1-.079-.026.168.168 0 0 1-.049-.063v-.001l-.26-.665h-1.307l-.27.665a.152.152 0 0 1-.047.061.135.135 0 0 1-.082.028h-.307l1.148-2.756h.398l1.164 2.756zm-1.895-1.023h1.079l-.455-1.122a1.845 1.845 0 0 1-.083-.245l-.003-.013-.044.144a1.282 1.282 0 0 1-.045.126l.003-.009-.452 1.119zm3.548-1.72c.023.013.043.03.058.05l1.674 2.076v-2.139h.342v2.756h-.196a.164.164 0 0 1-.074-.017h.001a.233.233 0 0 1-.061-.051L22.71 29.53a.753.753 0 0 1 0 .095v2.049h-.342v-2.756h.203c.024 0 .047.004.068.013zm4.897 1.647v1.094h-.383v-1.094l-1.058-1.66h.35c.028 0 .054.009.075.024a.251.251 0 0 1 .052.061l.001.001.662 1.07a1.363 1.363 0 0 1 .116.244l.05-.118a.93.93 0 0 1 .068-.13l-.002.004.653-1.078a.284.284 0 0 1 .05-.059.117.117 0 0 1 .076-.027h.352l-1.06 1.667zm-15.566-6.284c.167.02.335.037.506.051 2.582-1.101 4.767-2.902 6.281-5.18s2.29-4.93 2.231-7.625l-2.846-2.712c.189.894.297 1.921.297 2.974 0 2.015-.396 3.937-1.115 5.694l.036-.1c-1.09 2.731-2.957 5.12-5.39 6.899z"></path>
        <path fill="var(--color3, #afb1b8)" d="M10.954 24.167l.077.015c2.6-1.773 4.583-4.247 5.692-7.104.627-1.564.991-3.378.991-5.276 0-1.296-.17-2.553-.488-3.748l.023.101-4.054-3.862c1.269 2.397 2.015 5.239 2.015 8.255 0 .701-.04 1.393-.119 2.074l.008-.083c-.397 3.519-1.834 6.857-4.144 9.628zm13.75-9.443c-.688 2.962-2.361 5.632-4.77 7.616a14.98 14.98 0 0 1-2.191 1.51l-.075.039a13.579 13.579 0 0 0 5.285-2.851l-.016.013a12.774 12.774 0 0 0 3.381-4.679l.031-.084-1.645-1.565z"></path>
        <path fill="var(--color3, #afb1b8)" d="M24.06 14.288l-2.341-2.23a13.684 13.684 0 0 1-2.23 7.249l.032-.053c-1.394 2.169-3.373 3.943-5.729 5.137h.012c.525 0 1.049-.03 1.572-.089a14.47 14.47 0 0 0 5.649-3.95l.014-.017a13.397 13.397 0 0 0 3.005-5.958l.016-.089zM11.294 2.664L8.501 0c-2.497.919-4.644 2.535-6.16 4.636S.008 9.225.001 11.775c.01 2.818 1.005 5.552 2.829 7.77s4.372 3.793 7.242 4.476c2.562-2.973 4.061-6.647 4.281-10.488s-.851-7.648-3.059-10.87zm19.218 11.214c-.01-3.343-1.409-6.547-3.89-8.91s-5.843-3.696-9.352-3.706a13.67 13.67 0 0 0-4.741.841l17.099 16.29c.559-1.335.884-2.886.884-4.513v-.001z"></path>
      </symbol>
      <symbol id="icon-logo_4" viewBox="0 0 60 32">
        <path fill="var(--color2, #afb1b8)" d="M9.229 9.548h-.002c-1.683 0-3.048 1.331-3.048 2.971v.002c0 1.64 1.365 2.971 3.048 2.971h.002c1.683 0 3.048-1.331 3.048-2.971v-.002c0-1.64-1.365-2.97-3.048-2.97zm22.501-.949a8.508 8.508 0 0 0-2.59-6.075A8.954 8.954 0 0 0 22.909 0c-2.339.004-4.581.912-6.236 2.523s-2.585 3.797-2.59 6.076v12.566S31.728 19.25 31.73 8.601v-.002zM0 25.289a5.909 5.909 0 0 0 1.801 4.226l.002.001a6.223 6.223 0 0 0 4.336 1.758 6.215 6.215 0 0 0 4.337-1.759l-.002.002a5.905 5.905 0 0 0 1.803-4.224v-8.746S-.001 17.882-.001 25.29zm6.14 1.566h-.003c-.331 0-.639-.098-.897-.267l.006.004a1.583 1.583 0 0 1-.588-.693l-.004-.01a1.511 1.511 0 0 1-.089-.914l-.002.01a1.56 1.56 0 0 1 .441-.802c.22-.213.5-.365.813-.427l.01-.002c.312-.061.635-.03.929.089s.545.319.722.577a1.546 1.546 0 0 1 .146 1.481l.004-.01c-.08.191-.199.365-.348.511s-.327.262-.522.341a1.61 1.61 0 0 1-.616.12h-.001v-.006zm12.532-.971h-1.256v1.297h-.655v-3.173h2.067v.53h-1.412v.819h1.255v.528zm3.143-.218c0 .313-.056.586-.166.822s-.269.417-.476.545a1.29 1.29 0 0 1-.682.192h-.025.001c-.263 0-.498-.063-.704-.19a1.271 1.271 0 0 1-.477-.533l-.003-.008a1.836 1.836 0 0 1-.172-.783v-.029.001-.158c0-.313.056-.588.168-.825a1.26 1.26 0 0 1 .477-.547c.206-.128.442-.192.707-.192s.499.064.704.192c.206.127.365.309.477.547s.17.511.17.822v.141zm-.662-.144c0-.333-.06-.586-.179-.759a.585.585 0 0 0-.485-.26l-.027.001h.001-.024a.58.58 0 0 0-.482.256l-.001.002c-.119.17-.18.42-.182.749v.155c0 .324.06.576.179.755s.291.268.515.268l.026.001c.2 0 .375-.101.479-.255l.001-.002c.118-.173.177-.424.179-.755v-.155zm2.783.826v-.018a.329.329 0 0 0-.131-.264l-.001-.001c-.087-.067-.244-.137-.47-.21a3.363 3.363 0 0 1-.558-.227l.019.009c-.36-.195-.541-.457-.541-.787 0-.171.048-.324.144-.458s.236-.24.417-.316c.182-.075.385-.113.61-.113s.429.042.606.124a.947.947 0 0 1 .412.347c.099.15.149.32.149.511h-.655a.422.422 0 0 0-.137-.338c-.092-.082-.22-.123-.386-.123-.16 0-.284.034-.372.103a.315.315 0 0 0-.134.259v.008c0 .103.052.189.155.259.105.07.258.135.461.196.372.112.643.251.813.417s.255.372.255.618c0 .275-.104.491-.312.647s-.487.234-.839.234c-.244 0-.467-.045-.667-.133a1.081 1.081 0 0 1-.458-.365l-.002-.003a.934.934 0 0 1-.157-.522v-.019.001h.656c0 .35.21.525.628.525a.616.616 0 0 0 .365-.094.312.312 0 0 0 .131-.253v-.014.001zm3.49-1.811h-.972v2.644H25.8v-2.644h-.959v-.53h2.586v.53zm2.286 1.268h-1.256v.85h1.474v.525h-2.128v-3.173h2.124v.53h-1.47v.756h1.256v.513zm1.777.214h-.521v1.162h-.655v-3.173h1.18c.374 0 .664.083.868.251s.305.403.305.708a.992.992 0 0 1-.141.543.955.955 0 0 1-.419.341l-.006.002.687 1.297v.03h-.703l-.595-1.162zm-.521-.53h.528c.164 0 .291-.042.381-.124a.45.45 0 0 0 .136-.323l-.001-.025v.001a.474.474 0 0 0-.129-.353c-.084-.086-.214-.129-.39-.129h-.526v.953zm3.963.573v1.119h-.655v-3.173h1.239c.238 0 .447.043.628.131s.321.211.418.372c.097.16.146.342.146.548 0 .311-.106.557-.32.737-.212.179-.506.268-.883.268h-.573zm0-.529h.584c.173 0 .304-.041.394-.123.092-.081.138-.197.138-.348l.001-.023a.522.522 0 0 0-.139-.355.519.519 0 0 0-.38-.149h-.599v.997zm4.138.272h-1.255v.85h1.474v.525H37.16v-3.173h2.124v.53h-1.469v.756h1.255v.513zm3.035-1.268h-.972v2.644h-.655v-2.644h-.959v-.53h2.585v.53zm2.284 1.268h-1.255v.85h1.474v.525h-2.128v-3.173h2.124v.53h-1.47v.756h1.256v.513zm1.778.214h-.521v1.162h-.654v-3.173h1.18c.375 0 .665.083.868.251s.305.403.305.708a.983.983 0 0 1-.141.543.962.962 0 0 1-.419.341l-.006.002.686 1.297v.03h-.702l-.595-1.162zm-.521-.53h.528c.164 0 .29-.042.381-.124a.448.448 0 0 0 .135-.322l-.001-.026v.001a.474.474 0 0 0-.128-.353c-.085-.086-.214-.129-.391-.129h-.525v.953zm3.843.859v-.018a.329.329 0 0 0-.131-.264l-.001-.001c-.087-.067-.244-.137-.47-.21a3.363 3.363 0 0 1-.558-.227l.019.009c-.36-.195-.541-.457-.541-.787 0-.171.048-.324.144-.458s.236-.24.417-.316c.181-.075.385-.113.61-.113s.429.042.606.124a.953.953 0 0 1 .412.347c.099.15.148.32.148.511h-.654a.422.422 0 0 0-.137-.338c-.092-.082-.22-.123-.386-.123-.16 0-.284.034-.373.103a.316.316 0 0 0-.133.258v.008c0 .103.052.189.155.259.105.07.258.135.46.196.372.112.644.251.813.417s.255.372.255.618c0 .275-.104.491-.312.647s-.487.234-.839.234c-.244 0-.467-.045-.667-.133a1.087 1.087 0 0 1-.458-.365l-.002-.003a.934.934 0 0 1-.157-.522v-.019.001h.656c0 .35.21.525.628.525a.616.616 0 0 0 .365-.094.311.311 0 0 0 .13-.253v-.014.001z"></path>
      </symbol>
      <symbol id="icon-logo_5" viewBox="0 0 40 32">
        <path fill="var(--color3, #afb1b8)" d="M3.056 26.742c.157.194.24.438.236.688l.001.053c0 .324-.141.615-.365.815l-.001.001a1.575 1.575 0 0 1-1.061.317H.001v-4.361h1.827a1.548 1.548 0 0 1 1.017.294l-.004-.003a.994.994 0 0 1 .353.818v-.003c.011.24-.065.477-.212.667a.99.99 0 0 1-.556.34c.247.046.471.177.63.373zm-2.188-.658h.78a.733.733 0 0 0 .497-.145.518.518 0 0 0 .169-.383l-.002-.045v.002l.001-.037a.535.535 0 0 0-.167-.389.75.75 0 0 0-.514-.147h.003-.767v1.144zm1.354 1.672a.542.542 0 0 0 .186-.408l-.001-.036v.002l.001-.032a.552.552 0 0 0-.189-.416l-.001-.001a.8.8 0 0 0-.48-.159l-.054.002h.002-.818v1.199h.829a.816.816 0 0 0 .524-.151zm4.568.861l-1.016-1.704h-.382v1.704h-.874v-4.361h1.654a1.624 1.624 0 0 1 1.156.373l-.003-.002a1.391 1.391 0 0 1 .12 1.808l.003-.004a1.337 1.337 0 0 1-.789.443l1.083 1.743h-.95zm-1.398-2.299h.715c.497 0 .745-.22.745-.66l.001-.037a.647.647 0 0 0-.184-.453.767.767 0 0 0-.566-.177h.003-.724l.009 1.328zm6.176 1.421H9.826l-.308.878h-.916l1.6-4.313h.991l1.593 4.312h-.916l-.301-.878zm-.233-.66l-.637-1.84-.637 1.84h1.273zm6.215 1.538h-.869l-1.946-2.965v2.965h-.865v-4.361h.865l1.946 2.982v-2.982h.868v4.361zm4.952-1.044c-.182.33-.45.593-.775.764l-.01.005a2.545 2.545 0 0 1-1.22.274h-1.546v-4.361h1.546l.067-.001c.42 0 .817.1 1.168.277l-.015-.007c.332.168.606.433.786.761.171.333.272.727.272 1.144s-.1.811-.278 1.158l.007-.014zm-.993-.104c.239-.278.384-.642.384-1.041s-.145-.763-.386-1.043l.002.002a1.5 1.5 0 0 0-1.091-.371h.004-.603v2.823h.603a1.496 1.496 0 0 0 1.088-.372l-.002.001zM12.111 0s11.201 4.246 10.964 10.39v10.392S11.882 16.534 12.116 10.39L12.111 0zm20.942 18.349a15.15 15.15 0 0 1 7.049-2.628l.068-.006v-3.253c-2.995 1.181-5.437 3.227-7.081 5.827l-.035.06z"></path>
        <path fill="var(--color3, #afb1b8)" d="M31.782 19.329c1.749-3.487 4.693-6.158 8.283-7.513l.105-.035V2.408S24.218 8.456 24.555 17.205v14.796s.711-.27 1.829-.778c0-.473 0-.95.05-1.43a15.388 15.388 0 0 1 5.327-10.447l.021-.017z"></path>
        <path fill="var(--color3, #afb1b8)" d="M30.266 24.825a15.3 15.3 0 0 1 .558-3.03 14.243 14.243 0 0 0-3.378 8.921v.016a44.08 44.08 0 0 0 3.286-1.741l-.218.118c-.191-.908-.3-1.952-.3-3.021 0-.445.019-.885.056-1.32l-.004.057zm.634.053a14.803 14.803 0 0 0 .212 3.971l-.015-.092c4.358-2.619 9.255-6.664 9.067-11.553v-.426a14.265 14.265 0 0 0-8.297 3.894l.005-.005a14.228 14.228 0 0 0-.968 4.158l-.003.052z"></path>
      </symbol>
      <symbol id="icon-logo_6" viewBox="0 0 62 32">
        <path fill="var(--color3, #afb1b8)" d="M31.123 14.854a2.248 2.248 0 0 1-.396-1.437v.007-2.074c0-.637.132-1.12.394-1.45s.715-.495 1.356-.494c.602 0 1.03.141 1.282.422.275.359.41.798.379 1.241v.487h-1.077v-.494l.001-.064c0-.148-.012-.293-.034-.435l.002.016a.482.482 0 0 0-.153-.287.575.575 0 0 0-.345-.113l-.048.002h.002a.616.616 0 0 0-.412.119l.002-.001a.568.568 0 0 0-.178.313l-.001.004a2.594 2.594 0 0 0-.042.513v2.518a1.425 1.425 0 0 0 .142.715l-.004-.008a.526.526 0 0 0 .212.171l.003.001a.544.544 0 0 0 .28.04h-.003a.545.545 0 0 0 .382-.115l-.001.001a.522.522 0 0 0 .16-.303v-.003c.026-.167.037-.336.034-.504v-.511h1.077v.466a2.015 2.015 0 0 1-.377 1.311l.004-.006c-.247.308-.669.462-1.288.462s-1.088-.164-1.354-.506zm4.485.022c-.272-.323-.408-.794-.408-1.416v-2.183c0-.616.136-1.082.408-1.399s.726-.474 1.364-.473c.633 0 1.085.158 1.358.473.271.317.41.783.41 1.399v2.183c0 .616-.139 1.089-.415 1.414-.277.325-.727.487-1.354.487s-1.09-.164-1.364-.485zm1.865-.524c.097-.202.142-.424.129-.646v-2.672l.002-.072a1.28 1.28 0 0 0-.133-.569l.003.007a.528.528 0 0 0-.216-.173l-.003-.001a.533.533 0 0 0-.287-.037h.003a.546.546 0 0 0-.289.039l.004-.001a.527.527 0 0 0-.219.172l-.001.001a1.242 1.242 0 0 0-.129.633v2.685a1.29 1.29 0 0 0 .129.646.672.672 0 0 0 .222.158l.004.002a.692.692 0 0 0 .558-.002l-.005.002a.672.672 0 0 0 .226-.16v-.013zm2.562-4.884h1.16l.872 4.028.892-4.028h1.128l.113 5.813h-.833l-.089-4.04-.861 4.04h-.669l-.892-4.054-.083 4.054h-.843l.104-5.812zm5.465 0h1.806c1.04 0 1.56.55 1.56 1.651 0 1.054-.547 1.58-1.643 1.579h-.614v2.583h-1.115l.007-5.812zm1.543 2.484c.11.014.222.004.327-.028a.78.78 0 0 0 .286-.155 1.01 1.01 0 0 0 .16-.657l.001-.067c0-.163-.02-.322-.057-.474l.003.014a.425.425 0 0 0-.083-.161l.001.001a.484.484 0 0 0-.139-.116l-.002-.001a1.055 1.055 0 0 0-.499-.092h.003-.433v1.736h.433zm3.431-2.484h1.197l1.229 5.813h-1.039l-.243-1.341H50.55l-.25 1.341h-1.055l1.229-5.812zm1.023 3.799l-.417-2.44-.417 2.44h.835zm2.395-3.799h.779l1.494 3.316V9.468h.925v5.812h-.742l-1.503-3.462v3.462h-.957l.002-5.812zm5.366 3.596l-1.242-3.588h1.046l.758 2.305.711-2.305h1.023l-1.226 3.588v2.216h-1.071v-2.216zm-26.413 4.758v.304h-.91v2.362h-.381v-2.362h-.914v-.304h2.205zm2.852 2.666h-.302a.124.124 0 0 1-.075-.026.134.134 0 0 1-.048-.06v-.001l-.263-.633h-1.262l-.264.633a.181.181 0 0 1-.04.072.124.124 0 0 1-.076.025h-.301l1.115-2.666h.387l1.128 2.655zm-1.847-.99h1.053l-.446-1.085a1.908 1.908 0 0 1-.08-.236l-.003-.014-.042.141-.04.111-.442 1.083zm3.769.728c.07.003.139.003.209 0 .061-.006.12-.017.179-.032a1.3 1.3 0 0 0 .169-.052l-.009.003c.049-.019.099-.042.15-.065v-.6h-.451a.082.082 0 0 1-.055-.021.057.057 0 0 1-.022-.046v-.208h.865v1.022a1.61 1.61 0 0 1-.459.214l-.012.003a1.747 1.747 0 0 1-.269.055l-.009.001a2.896 2.896 0 0 1-.321.017h-.018c-.197 0-.386-.037-.56-.103l.011.004a1.34 1.34 0 0 1-.446-.279l.001.001a1.293 1.293 0 0 1-.285-.414l-.003-.008a1.424 1.424 0 0 1-.103-.535v-.034c0-.195.037-.38.105-.551l-.004.01c.064-.158.161-.301.287-.422.127-.12.279-.214.446-.277a1.71 1.71 0 0 1 .598-.099c.104 0 .207.007.31.023.09.014.179.036.266.067a1.2 1.2 0 0 1 .223.106c.069.042.134.088.195.139l-.108.165a.103.103 0 0 1-.036.036.098.098 0 0 1-.051.014.137.137 0 0 1-.07-.021h.001a1.281 1.281 0 0 1-.114-.066l.005.003a.905.905 0 0 0-.143-.07l-.007-.002a1.21 1.21 0 0 0-.197-.058l-.008-.001a1.495 1.495 0 0 0-.268-.023h-.016.001-.013c-.15 0-.293.027-.425.077l.008-.003a.912.912 0 0 0-.328.211.924.924 0 0 0-.207.332 1.338 1.338 0 0 0 .003.898l-.003-.009c.049.125.125.24.223.335a.935.935 0 0 0 .326.211c.142.046.292.064.442.053zm3.553-.042h1.217v.304h-1.59v-2.666h.381l-.009 2.362zm2.484.303h-.381v-2.664h.381v2.666zm1.418-2.653a.192.192 0 0 1 .057.048l1.63 2.01-.002-.048.002-.05v.002-1.986h.332v2.676h-.191l-.013.001a.171.171 0 0 1-.071-.016h.001a.266.266 0 0 1-.06-.05l-1.628-2.007v2.072h-.319v-2.665h.198c.022 0 .043.004.063.013zm4.827-.012v.294H48.55v.88h1.095v.282H48.55v.91h1.351v.294h-1.743v-2.659h1.743zM9.95 1.359l16.929 4.55v15.946L9.952 17.308V1.359zM8.865 0v18.081l19.098 5.135V5.136L8.865-.001z"></path>
        <path fill="var(--color3, #afb1b8)" d="M19.1 31.61L0 26.471V8.391l19.1 5.137V31.61z"></path>
        <path fill="var(--color3, #afb1b8)" d="M9.181 1.155l16.707 4.493-7.105 6.728-16.71-4.495L9.18 1.154zM8.865 0L0 8.392l19.1 5.137 8.863-8.392L8.865 0zm11.31 30.593l7.788-7.374-7.788-2.096v9.47z"></path>
      </symbol>
      <symbol id="icon-Object" viewBox="0 0 31 32">
        <path fill="var(--color3, #afb1b8)" d="M4.722 31.103c.023.001.044.01.06.025l.153.161c-.119.13-.266.234-.431.304a1.533 1.533 0 0 1-.61.109h-.031a1.5 1.5 0 0 1-.554-.106l.01.004a1.25 1.25 0 0 1-.709-.725l-.003-.009a1.591 1.591 0 0 1-.097-.55v-.044c0-.198.038-.387.108-.56l-.004.01a1.318 1.318 0 0 1 .757-.734c.188-.07.389-.104.591-.102a1.47 1.47 0 0 1 .55.093c.151.063.29.149.412.257l-.129.171a.134.134 0 0 1-.032.031.077.077 0 0 1-.045.014h-.006a.107.107 0 0 1-.056-.019l-.068-.045-.096-.059a1.024 1.024 0 0 0-.296-.101l-.006-.001a1.233 1.233 0 0 0-.209-.018h-.02.001-.016c-.147 0-.288.028-.417.079l.008-.003a.964.964 0 0 0-.333.216 1.002 1.002 0 0 0-.216.342 1.248 1.248 0 0 0-.079.452c-.002.156.025.313.079.46.046.126.119.242.212.341a.863.863 0 0 0 .318.212c.125.049.259.074.394.073.078.001.156-.004.234-.015a.879.879 0 0 0 .505-.235.115.115 0 0 1 .072-.03zm4.422-.807c.002.194-.033.387-.103.568a1.246 1.246 0 0 1-.288.44 1.314 1.314 0 0 1-.444.286l-.009.003a1.695 1.695 0 0 1-1.176-.004l.012.004a1.331 1.331 0 0 1-.45-.29 1.3 1.3 0 0 1-.288-.436l-.003-.009a1.614 1.614 0 0 1 .004-1.147l-.004.011a1.34 1.34 0 0 1 .29-.447 1.32 1.32 0 0 1 .441-.276l.009-.003A1.674 1.674 0 0 1 8.311 29l-.012-.004a1.29 1.29 0 0 1 .741.729c.071.182.106.376.104.571zm-.402 0v-.024c0-.155-.027-.303-.076-.441l.003.009a.907.907 0 0 0-.522-.554l-.006-.002a1.219 1.219 0 0 0-.855.003l.009-.003a.903.903 0 0 0-.528.55l-.002.006a1.465 1.465 0 0 0 0 .912.899.899 0 0 0 .524.552l.006.002c.273.097.573.097.846 0a.903.903 0 0 0 .324-.214.972.972 0 0 0 .205-.341 1.29 1.29 0 0 0 .073-.456zm3.418.478l.041.102c.015-.036.028-.069.044-.102.017-.04.034-.073.052-.105l-.002.005.978-1.694c.019-.03.037-.048.056-.053a.234.234 0 0 1 .066-.009h.015-.001.289v2.755h-.342v-2.11l-.001-.048.001-.05v.002l-.984 1.718a.149.149 0 0 1-.057.062h-.001a.16.16 0 0 1-.082.022h-.057a.151.151 0 0 1-.141-.084v-.001l-1.013-1.73v2.212h-.331v-2.75h.303a.22.22 0 0 1 .068.01h-.002a.107.107 0 0 1 .053.052v.001l.999 1.696c.018.028.035.06.048.094l.001.004zm3.681-.136v1.031h-.383v-2.75h.887c.158 0 .311.022.455.063l-.012-.003a.927.927 0 0 1 .337.171c.085.074.15.167.191.27a.925.925 0 0 1 .066.352.84.84 0 0 1-.071.352.772.772 0 0 1-.205.274l-.001.001a.953.953 0 0 1-.333.181l-.007.002a1.498 1.498 0 0 1-.461.064l-.463-.007zm0-.296h.464c.1.002.201-.013.296-.042a.627.627 0 0 0 .215-.12l-.001.001c.056-.049.1-.11.129-.178l.001-.003a.565.565 0 0 0 .046-.225v-.008l.001-.028a.506.506 0 0 0-.041-.199l.001.003a.544.544 0 0 0-.133-.188.763.763 0 0 0-.517-.148h.003-.464v1.134zm5.146 1.331h-.308a.134.134 0 0 1-.079-.026.168.168 0 0 1-.049-.063v-.001l-.26-.665h-1.307l-.27.665a.152.152 0 0 1-.047.061.135.135 0 0 1-.082.028h-.307l1.148-2.756h.398l1.164 2.756zm-1.895-1.023h1.079l-.455-1.122a1.845 1.845 0 0 1-.083-.245l-.003-.013-.044.144a1.282 1.282 0 0 1-.045.126l.003-.009-.452 1.119zm3.548-1.72c.023.013.043.03.058.05l1.674 2.076v-2.139h.342v2.756h-.196a.164.164 0 0 1-.074-.017h.001a.233.233 0 0 1-.061-.051L22.71 29.53a.753.753 0 0 1 0 .095v2.049h-.342v-2.756h.203c.024 0 .047.004.068.013zm4.897 1.647v1.094h-.383v-1.094l-1.058-1.66h.35c.028 0 .054.009.075.024a.251.251 0 0 1 .052.061l.001.001.662 1.07a1.363 1.363 0 0 1 .116.244l.05-.118a.93.93 0 0 1 .068-.13l-.002.004.653-1.078a.284.284 0 0 1 .05-.059.117.117 0 0 1 .076-.027h.352l-1.06 1.667zm-15.566-6.284c.167.02.335.037.506.051 2.582-1.101 4.767-2.902 6.281-5.18s2.29-4.93 2.231-7.625l-2.846-2.712c.189.894.297 1.921.297 2.974 0 2.015-.396 3.937-1.115 5.694l.036-.1c-1.09 2.731-2.957 5.12-5.39 6.899z"></path>
        <path fill="var(--color3, #afb1b8)" d="M10.954 24.167l.077.015c2.6-1.773 4.583-4.247 5.692-7.104.627-1.564.991-3.378.991-5.276 0-1.296-.17-2.553-.488-3.748l.023.101-4.054-3.862c1.269 2.397 2.015 5.239 2.015 8.255 0 .701-.04 1.393-.119 2.074l.008-.083c-.397 3.519-1.834 6.857-4.144 9.628zm13.75-9.443c-.688 2.962-2.361 5.632-4.77 7.616a14.98 14.98 0 0 1-2.191 1.51l-.075.039a13.579 13.579 0 0 0 5.285-2.851l-.016.013a12.774 12.774 0 0 0 3.381-4.679l.031-.084-1.645-1.565z"></path>
        <path fill="var(--color3, #afb1b8)" d="M24.06 14.288l-2.341-2.23a13.684 13.684 0 0 1-2.23 7.249l.032-.053c-1.394 2.169-3.373 3.943-5.729 5.137h.012c.525 0 1.049-.03 1.572-.089a14.47 14.47 0 0 0 5.649-3.95l.014-.017a13.397 13.397 0 0 0 3.005-5.958l.016-.089zM11.294 2.664L8.501 0c-2.497.919-4.644 2.535-6.16 4.636S.008 9.225.001 11.775c.01 2.818 1.005 5.552 2.829 7.77s4.372 3.793 7.242 4.476c2.562-2.973 4.061-6.647 4.281-10.488s-.851-7.648-3.059-10.87zm19.218 11.214c-.01-3.343-1.409-6.547-3.89-8.91s-5.843-3.696-9.352-3.706a13.67 13.67 0 0 0-4.741.841l17.099 16.29c.559-1.335.884-2.886.884-4.513v-.001z"></path>
      </symbol>
      <symbol id="icon-smartphone" viewBox="0 0 20 32">
        <path fill="var(--color4, #757575)" d="M17 0H3C1.346 0 0 1.346 0 3v26c0 1.654 1.346 3 3 3h14c1.654 0 3-1.346 3-3V3c0-1.654-1.346-3-3-3zM3 2h14a1 1 0 0 1 1 1v21H2V3a1 1 0 0 1 1-1zm14 28H3a1 1 0 0 1-1-1v-3h16v3a1 1 0 0 1-1 1z"></path>
        <path fill="var(--color4, #757575)" d="M4.708 27.478a.889.889 0 0 1 .001 1.319l-.001.001a1.048 1.048 0 0 1-1.417 0l.001.001a.889.889 0 0 1-.001-1.319l.001-.001a1.048 1.048 0 0 1 1.417 0l-.001-.001z"></path>
      </symbol>
      <symbol id="icon-twitter" viewBox="0 0 32 32">
        <path fill="var(--color3, #afb1b8)" d="M32 6.078c-1.1.493-2.376.857-3.713 1.028l-.068.007a6.556 6.556 0 0 0 2.873-3.579l.013-.046a12.88 12.88 0 0 1-4.076 1.573l-.084.014A6.558 6.558 0 0 0 15.6 9.557v.004c0 .52.043 1.021.152 1.496-5.454-.266-10.28-2.88-13.522-6.861a6.524 6.524 0 0 0-.902 3.313v.001a6.57 6.57 0 0 0 2.914 5.451 6.453 6.453 0 0 1-2.994-.823l.033.017v.072a6.592 6.592 0 0 0 5.213 6.44l.043.008a6.403 6.403 0 0 1-1.662.215h-.061.003c-.419 0-.843-.024-1.242-.112.85 2.598 3.261 4.509 6.13 4.57a13.093 13.093 0 0 1-8.122 2.8H1.57h.001-.062c-.531 0-1.055-.034-1.569-.099l.061.006c2.826 1.846 6.287 2.944 10.004 2.944h.063-.003c12.072 0 18.672-10 18.672-18.669 0-.288-.01-.57-.024-.848a13.203 13.203 0 0 0 3.258-3.355l.03-.047z"></path>
      </symbol>
    </defs>
  </symbol>
  <symbol viewBox="0 0 20 20" fill="none" xmlns="http://www.w3.org/2000/svg" id="twitter">
    <g clip-path="url(#clip0)">
      <path d="M20 3.799a8.549 8.549 0 0 1-2.363.647 4.077 4.077 0 0 0 1.804-2.266 8.192 8.192 0 0 1-2.6.992A4.099 4.099 0 0 0 9.75 5.976c0 .325.027.638.095.935-3.409-.166-6.425-1.8-8.451-4.288A4.128 4.128 0 0 0 .83 4.694c0 1.42.732 2.679 1.821 3.407A4.05 4.05 0 0 1 .8 7.597v.045a4.119 4.119 0 0 0 3.285 4.03 4.09 4.09 0 0 1-1.075.134c-.262 0-.527-.015-.776-.07.531 1.624 2.038 2.818 3.831 2.856a8.238 8.238 0 0 1-5.084 1.75A7.67 7.67 0 0 1 0 16.284a11.543 11.543 0 0 0 6.29 1.84c7.545 0 11.67-6.25 11.67-11.668 0-.18-.006-.356-.015-.53A8.179 8.179 0 0 0 20 3.8z"
        fill="#AFB1B8"></path>
    </g>
    <defs>
      <clipPath id="clip0">
        <path fill="#fff" d="M0 0h20v20H0z"></path>
      </clipPath>
    </defs>
  </symbol>
</svg>